<?xml version="1.0" encoding="utf-8"?>
<COLLADA xmlns="http://www.collada.org/2005/11/COLLADASchema" version="1.4.1" xmlns:xsi="http://www.w3.org/2001/XMLSchema-instance">
  <asset>
    <contributor>
      <author>Blender User</author>
      <authoring_tool>Blender 3.3.21 commit date:2024-07-15, commit time:08:57, hash:e016c21db151</authoring_tool>
    </contributor>
    <created>2025-01-14T08:41:18</created>
    <modified>2025-01-14T08:41:18</modified>
    <unit name="meter" meter="1"/>
    <up_axis>Z_UP</up_axis>
  </asset>
  <library_cameras>
    <camera id="Camera-camera" name="Camera">
      <optics>
        <technique_common>
          <perspective>
            <xfov sid="xfov">39.59775</xfov>
            <aspect_ratio>1.777778</aspect_ratio>
            <znear sid="znear">0.1</znear>
            <zfar sid="zfar">100</zfar>
          </perspective>
        </technique_common>
      </optics>
      <extra>
        <technique profile="blender">
          <shiftx sid="shiftx" type="float">0</shiftx>
          <shifty sid="shifty" type="float">0</shifty>
          <dof_distance sid="dof_distance" type="float">10</dof_distance>
        </technique>
      </extra>
    </camera>
  </library_cameras>
  <library_lights>
    <light id="Light-light" name="Light">
      <technique_common>
        <point>
          <color sid="color">1000 1000 1000</color>
          <constant_attenuation>1</constant_attenuation>
          <linear_attenuation>0</linear_attenuation>
          <quadratic_attenuation>0.00111109</quadratic_attenuation>
        </point>
      </technique_common>
      <extra>
        <technique profile="blender">
          <type sid="type" type="int">0</type>
          <flag sid="flag" type="int">0</flag>
          <mode sid="mode" type="int">1</mode>
          <gamma sid="blender_gamma" type="float">1</gamma>
          <red sid="red" type="float">1</red>
          <green sid="green" type="float">1</green>
          <blue sid="blue" type="float">1</blue>
          <shadow_r sid="blender_shadow_r" type="float">0</shadow_r>
          <shadow_g sid="blender_shadow_g" type="float">0</shadow_g>
          <shadow_b sid="blender_shadow_b" type="float">0</shadow_b>
          <energy sid="blender_energy" type="float">1000</energy>
          <dist sid="blender_dist" type="float">29.99998</dist>
          <spotsize sid="spotsize" type="float">75</spotsize>
          <spotblend sid="spotblend" type="float">0.15</spotblend>
          <att1 sid="att1" type="float">0</att1>
          <att2 sid="att2" type="float">1</att2>
          <falloff_type sid="falloff_type" type="int">2</falloff_type>
          <clipsta sid="clipsta" type="float">0.04999995</clipsta>
          <clipend sid="clipend" type="float">30.002</clipend>
          <bias sid="bias" type="float">1</bias>
          <soft sid="soft" type="float">3</soft>
          <bufsize sid="bufsize" type="int">2880</bufsize>
          <samp sid="samp" type="int">3</samp>
          <buffers sid="buffers" type="int">1</buffers>
          <area_shape sid="area_shape" type="int">1</area_shape>
          <area_size sid="area_size" type="float">0.1</area_size>
          <area_sizey sid="area_sizey" type="float">0.1</area_sizey>
          <area_sizez sid="area_sizez" type="float">1</area_sizez>
        </technique>
      </extra>
    </light>
  </library_lights>
  <library_effects>
    <effect id="매테리얼-effect">
      <profile_COMMON>
        <technique sid="common">
          <lambert>
            <emission>
              <color sid="emission">0 0 0 1</color>
            </emission>
            <diffuse>
              <color sid="diffuse">0.01946141 0.1106888 0.02046417 1</color>
            </diffuse>
            <index_of_refraction>
              <float sid="ior">1.45</float>
            </index_of_refraction>
          </lambert>
        </technique>
      </profile_COMMON>
    </effect>
  </library_effects>
  <library_images/>
  <library_materials>
    <material id="매테리얼-material" name="매테리얼">
      <instance_effect url="#매테리얼-effect"/>
    </material>
  </library_materials>
  <library_geometries>
    <geometry id="Mesh_0-mesh" name="Mesh_0">
      <mesh>
        <source id="Mesh_0-mesh-positions">
          <float_array id="Mesh_0-mesh-positions-array" count="2664">-45 -19.175 -39.5 -45 -13.175 -39.5 -47 -19.175 -41.5 -47 -13.175 -41.5 -45 -7.175 -39.5 -47 -7.175 -41.5 -45 -7.175 -39.5 -45 -13.175 -39.5 -42 -7.175 -39.5 -42 -13.175 -39.5 -45 -19.175 -39.5 -42 -19.175 -39.5 -39.5 -7.175 -45 -39.5 -13.175 -45 -41.5 -7.175 -47 -41.5 -13.175 -47 -39.5 -19.175 -45 -41.5 -19.175 -47 -39.5 -19.175 -45 -39.5 -13.175 -45 -39.5 -19.175 -42 -39.5 -13.175 -42 -39.5 -7.175 -45 -39.5 -7.175 -42 39.5 -19.175 -45 39.5 -13.175 -45 41.5 -19.175 -47 41.5 -13.175 -47 39.5 -7.175 -45 41.5 -7.175 -47 39.5 -7.175 -45 39.5 -13.175 -45 39.5 -7.175 -42 39.5 -13.175 -42 39.5 -19.175 -45 39.5 -19.175 -42 45 -7.175 -39.5 45 -13.175 -39.5 47 -7.175 -41.5 47 -13.175 -41.5 45 -19.175 -39.5 47 -19.175 -41.5 45 -19.175 -39.5 45 -13.175 -39.5 42 -19.175 -39.5 42 -13.175 -39.5 45 -7.175 -39.5 42 -7.175 -39.5 45 -19.175 39.5 45 -13.175 39.5 47 -19.175 41.5 47 -13.175 41.5 45 -7.175 39.5 47 -7.175 41.5 45 -7.175 39.5 45 -13.175 39.5 42 -7.175 39.5 42 -13.175 39.5 45 -19.175 39.5 42 -19.175 39.5 39.5 -7.175 45 39.5 -13.175 45 41.5 -7.175 47 41.5 -13.175 47 39.5 -19.175 45 41.5 -19.175 47 39.5 -19.175 45 39.5 -13.175 45 39.5 -19.175 42 39.5 -13.175 42 39.5 -7.175 45 39.5 -7.175 42 -45 -7.175 39.5 -45 -13.175 39.5 -47 -7.175 41.5 -47 -13.175 41.5 -45 -19.175 39.5 -47 -19.175 41.5 -45 -19.175 39.5 -45 -13.175 39.5 -42 -19.175 39.5 -42 -13.175 39.5 -45 -7.175 39.5 -42 -7.175 39.5 -39.5 -19.175 45 -39.5 -13.175 45 -41.5 -19.175 47 -41.5 -13.175 47 -39.5 -7.175 45 -41.5 -7.175 47 -39.5 -7.175 45 -39.5 -13.175 45 -39.5 -7.175 42 -39.5 -13.175 42 -39.5 -19.175 45 -39.5 -19.175 42 -42 -19.175 4.5 -47 -19.175 4.5 -42 -19.175 13.25 -47 -19.175 13.75 -42 -19.175 22 -47 -19.175 23 -42 -19.175 30.75 -47 -19.175 32.25 -45 -19.175 39.5 -47 -19.175 41.5 -42 -19.175 39.5 -47 -7.175 41.5 -47 -7.175 32.25 -45 -7.175 39.5 -42 -7.175 30.75 -42 -7.175 39.5 -47 -7.175 23 -42 -7.175 22 -47 -7.175 13.75 -42 -7.175 13.25 -47 -7.175 4.5 -42 -7.175 4.5 -47 -7.175 4.5 -47 -13.175 4.5 -42 -7.175 4.5 -42 -13.175 4.5 -47 -19.175 4.5 -42 -19.175 4.5 -42 -7.175 4.5 -42 -13.175 4.5 -42 -7.175 13.25 -42 -19.175 13.25 -42 -19.175 22 -42 -19.175 4.5 -42 -7.175 22 -42 -19.175 30.75 -42 -7.175 30.75 -42 -13.175 39.5 -42 -7.175 39.5 -42 -19.175 39.5 -47 -19.175 -41.5 -47 -19.175 -32.25 -45 -19.175 -39.5 -42 -19.175 -30.75 -42 -19.175 -39.5 -47 -19.175 -23 -42 -19.175 -22 -47 -19.175 -13.75 -42 -19.175 -13.25 -47 -19.175 -4.5 -42 -19.175 -4.5 -47 -19.175 -4.5 -47 -13.175 -4.5 -42 -19.175 -4.5 -42 -13.175 -4.5 -47 -7.175 -4.5 -42 -7.175 -4.5 -42 -7.175 -4.5 -47 -7.175 -4.5 -42 -7.175 -13.25 -47 -7.175 -13.75 -42 -7.175 -22 -47 -7.175 -23 -42 -7.175 -30.75 -47 -7.175 -32.25 -45 -7.175 -39.5 -47 -7.175 -41.5 -42 -7.175 -39.5 -42 -7.175 -39.5 -42 -13.175 -39.5 -42 -7.175 -30.75 -42 -19.175 -30.75 -42 -19.175 -22 -42 -19.175 -39.5 -42 -7.175 -22 -42 -19.175 -13.25 -42 -7.175 -13.25 -42 -13.175 -4.5 -42 -7.175 -4.5 -42 -19.175 -4.5 4.5 -19.175 42 4.5 -19.175 47 13.25 -19.175 42 13.75 -19.175 47 22 -19.175 42 23 -19.175 47 30.75 -19.175 42 32.25 -19.175 47 39.5 -19.175 45 41.5 -19.175 47 39.5 -19.175 42 41.5 -7.175 47 32.25 -7.175 47 39.5 -7.175 45 30.75 -7.175 42 39.5 -7.175 42 23 -7.175 47 22 -7.175 42 13.75 -7.175 47 13.25 -7.175 42 4.5 -7.175 47 4.5 -7.175 42 4.5 -7.175 47 4.5 -13.175 47 4.5 -7.175 42 4.5 -13.175 42 4.5 -19.175 47 4.5 -19.175 42 4.5 -7.175 42 4.5 -13.175 42 13.25 -7.175 42 13.25 -19.175 42 22 -19.175 42 4.5 -19.175 42 22 -7.175 42 30.75 -19.175 42 30.75 -7.175 42 39.5 -13.175 42 39.5 -7.175 42 39.5 -19.175 42 -41.5 -19.175 47 -32.25 -19.175 47 -39.5 -19.175 45 -30.75 -19.175 42 -39.5 -19.175 42 -23 -19.175 47 -22 -19.175 42 -13.75 -19.175 47 -13.25 -19.175 42 -4.5 -19.175 47 -4.5 -19.175 42 -4.5 -19.175 47 -4.5 -13.175 47 -4.5 -19.175 42 -4.5 -13.175 42 -4.5 -7.175 47 -4.5 -7.175 42 -4.5 -7.175 42 -4.5 -7.175 47 -13.25 -7.175 42 -13.75 -7.175 47 -22 -7.175 42 -23 -7.175 47 -30.75 -7.175 42 -32.25 -7.175 47 -39.5 -7.175 45 -41.5 -7.175 47 -39.5 -7.175 42 -39.5 -7.175 42 -39.5 -13.175 42 -30.75 -7.175 42 -30.75 -19.175 42 -22 -19.175 42 -39.5 -19.175 42 -22 -7.175 42 -13.25 -19.175 42 -13.25 -7.175 42 -4.5 -13.175 42 -4.5 -7.175 42 -4.5 -19.175 42 42 -19.175 -4.5 47 -19.175 -4.5 42 -19.175 -13.25 47 -19.175 -13.75 42 -19.175 -22 47 -19.175 -23 42 -19.175 -30.75 47 -19.175 -32.25 45 -19.175 -39.5 47 -19.175 -41.5 42 -19.175 -39.5 47 -7.175 -41.5 47 -7.175 -32.25 45 -7.175 -39.5 42 -7.175 -30.75 42 -7.175 -39.5 47 -7.175 -23 42 -7.175 -22 47 -7.175 -13.75 42 -7.175 -13.25 47 -7.175 -4.5 42 -7.175 -4.5 47 -7.175 -4.5 47 -13.175 -4.5 42 -7.175 -4.5 42 -13.175 -4.5 47 -19.175 -4.5 42 -19.175 -4.5 42 -7.175 -4.5 42 -13.175 -4.5 42 -7.175 -13.25 42 -19.175 -13.25 42 -19.175 -22 42 -19.175 -4.5 42 -7.175 -22 42 -19.175 -30.75 42 -7.175 -30.75 42 -13.175 -39.5 42 -7.175 -39.5 42 -19.175 -39.5 47 -19.175 41.5 47 -19.175 32.25 45 -19.175 39.5 42 -19.175 30.75 42 -19.175 39.5 47 -19.175 23 42 -19.175 22 47 -19.175 13.75 42 -19.175 13.25 47 -19.175 4.5 42 -19.175 4.5 47 -19.175 4.5 47 -13.175 4.5 42 -19.175 4.5 42 -13.175 4.5 47 -7.175 4.5 42 -7.175 4.5 42 -7.175 4.5 47 -7.175 4.5 42 -7.175 13.25 47 -7.175 13.75 42 -7.175 22 47 -7.175 23 42 -7.175 30.75 47 -7.175 32.25 45 -7.175 39.5 47 -7.175 41.5 42 -7.175 39.5 42 -7.175 39.5 42 -13.175 39.5 42 -7.175 30.75 42 -19.175 30.75 42 -19.175 22 42 -19.175 39.5 42 -7.175 22 42 -19.175 13.25 42 -7.175 13.25 42 -13.175 4.5 42 -7.175 4.5 42 -19.175 4.5 -4.5 -19.175 -42 -4.5 -19.175 -47 -13.25 -19.175 -42 -13.75 -19.175 -47 -22 -19.175 -42 -23 -19.175 -47 -30.75 -19.175 -42 -32.25 -19.175 -47 -39.5 -19.175 -45 -41.5 -19.175 -47 -39.5 -19.175 -42 -41.5 -7.175 -47 -32.25 -7.175 -47 -39.5 -7.175 -45 -30.75 -7.175 -42 -39.5 -7.175 -42 -23 -7.175 -47 -22 -7.175 -42 -13.75 -7.175 -47 -13.25 -7.175 -42 -4.5 -7.175 -47 -4.5 -7.175 -42 -4.5 -7.175 -47 -4.5 -13.175 -47 -4.5 -7.175 -42 -4.5 -13.175 -42 -4.5 -19.175 -47 -4.5 -19.175 -42 -4.5 -7.175 -42 -4.5 -13.175 -42 -13.25 -7.175 -42 -13.25 -19.175 -42 -22 -19.175 -42 -4.5 -19.175 -42 -22 -7.175 -42 -30.75 -19.175 -42 -30.75 -7.175 -42 -39.5 -13.175 -42 -39.5 -7.175 -42 -39.5 -19.175 -42 41.5 -19.175 -47 32.25 -19.175 -47 39.5 -19.175 -45 30.75 -19.175 -42 39.5 -19.175 -42 23 -19.175 -47 22 -19.175 -42 13.75 -19.175 -47 13.25 -19.175 -42 4.5 -19.175 -47 4.5 -19.175 -42 4.5 -19.175 -47 4.5 -13.175 -47 4.5 -19.175 -42 4.5 -13.175 -42 4.5 -7.175 -47 4.5 -7.175 -42 4.5 -7.175 -42 4.5 -7.175 -47 13.25 -7.175 -42 13.75 -7.175 -47 22 -7.175 -42 23 -7.175 -47 30.75 -7.175 -42 32.25 -7.175 -47 39.5 -7.175 -45 41.5 -7.175 -47 39.5 -7.175 -42 39.5 -7.175 -42 39.5 -13.175 -42 30.75 -7.175 -42 30.75 -19.175 -42 22 -19.175 -42 39.5 -19.175 -42 22 -7.175 -42 13.25 -19.175 -42 13.25 -7.175 -42 4.5 -13.175 -42 4.5 -7.175 -42 4.5 -19.175 -42 44 -20.175 -47 44 -13.175 -47 47 -20.175 -44 47 -13.175 -44 44 -6.175 -47 47 -6.175 -44 47 -19.175 -32.25 47 -20.175 -33 47 -19.175 -41.5 47 -20.175 -44 47 -13.175 -44 47 -19.175 -23 47 -20.175 -22 47 -19.175 -13.75 47 -20.175 -11 47 -19.175 -4.5 47 -20.175 0 47 -13.175 0 47 -19.175 4.5 47 -13.175 4.5 47 -7.175 4.5 47 -7.175 0 47 -6.175 0 47 -7.175 -4.5 47 -6.175 -11 47 -7.175 -13.75 47 -6.175 -22 47 -7.175 -23 47 -6.175 -33 47 -7.175 -32.25 47 -7.175 -41.5 47 -13.175 -4.5 47 -13.175 -41.5 47 -6.175 -44 47 -7.175 32.25 47 -6.175 33 47 -7.175 41.5 47 -6.175 44 47 -13.175 44 47 -7.175 23 47 -6.175 22 47 -7.175 13.75 47 -6.175 11 47 -20.175 11 47 -19.175 13.75 47 -20.175 22 47 -19.175 23 47 -20.175 33 47 -19.175 32.25 47 -19.175 41.5 47 -13.175 41.5 47 -20.175 44 -8.75 -6.175 -22.5 -15.66667 -6.175 -26.11111 -17.5 -6.175 -22.5 -26.11111 -6.175 -26.11111 -26.11111 -6.175 -15.66667 -36.55556 -6.175 -26.11111 -36.55556 -6.175 -15.66667 -47 -6.175 -22 -47 -6.175 -11 -5.222222 -6.175 -26.11111 0 -6.175 -22.5 5.222222 -6.175 -26.11111 8.75 -6.175 -22.5 15.66667 -6.175 -26.11111 17.5 -6.175 -22.5 26.11111 -6.175 -26.11111 26.11111 -6.175 -15.66667 36.55556 -6.175 -15.66667 36.55556 -6.175 -5.222222 47 -6.175 -11 47 -6.175 0 36.55556 -6.175 5.222222 47 -6.175 11 36.55556 -6.175 15.66667 47 -6.175 22 36.55556 -6.175 26.11111 47 -6.175 33 36.55556 -6.175 36.55556 47 -6.175 44 44 -6.175 47 33 -6.175 47 26.11111 -6.175 36.55556 22 -6.175 47 15.66667 -6.175 36.55556 11 -6.175 47 5.222222 -6.175 36.55556 0 -6.175 47 -5.222222 -6.175 36.55556 -11 -6.175 47 -15.66667 -6.175 36.55556 -22 -6.175 47 -26.11111 -6.175 36.55556 -33 -6.175 47 -36.55556 -6.175 36.55556 -44 -6.175 47 -47 -6.175 44 -47 -6.175 33 -36.55556 -6.175 26.11111 -47 -6.175 22 -36.55556 -6.175 24.8326 -36.55556 -6.175 15.66667 -26.11111 -6.175 23.55409 -26.11111 -6.175 15.66667 -17.5 -6.175 22.5 -17.5 -6.175 11.25 17.5 -6.175 -11.25 26.11111 -6.175 -5.222222 17.5 -6.175 0 26.11111 -6.175 5.222222 17.5 -6.175 11.25 26.11111 -6.175 15.66667 17.5 -6.175 22.5 26.11111 -6.175 26.11111 15.66667 -6.175 26.11111 8.75 -6.175 22.5 5.222222 -6.175 26.11111 0 -6.175 22.5 -5.222222 -6.175 26.11111 -8.75 -6.175 22.5 -15.66667 -6.175 26.11111 -26.11111 -6.175 26.11111 -26.11111 -6.175 5.222222 -17.5 -6.175 0 -26.11111 -6.175 -5.222222 -17.5 -6.175 -11.25 47 -6.175 -33 47 -6.175 -44 36.55556 -6.175 -36.55556 44 -6.175 -47 33 -6.175 -47 26.11111 -6.175 -36.55556 22 -6.175 -47 15.66667 -6.175 -36.55556 11 -6.175 -47 5.222222 -6.175 -36.55556 0 -6.175 -47 -5.222222 -6.175 -36.55556 -11 -6.175 -47 -15.66667 -6.175 -36.55556 -22 -6.175 -47 -26.11111 -6.175 -36.55556 -33 -6.175 -47 -36.55556 -6.175 -36.55556 -44 -6.175 -47 -47 -6.175 -44 -47 -6.175 -33 -36.55556 -6.175 -5.222222 -47 -6.175 0 -36.55556 -6.175 5.222222 -47 -6.175 11 47 -6.175 -22 36.55556 -6.175 -26.11111 -47 -20.175 -44 -47 -13.175 -44 -44 -20.175 -47 -44 -13.175 -47 -47 -6.175 -44 -44 -6.175 -47 -47 -7.175 -32.25 -47 -6.175 -33 -47 -7.175 -41.5 -47 -6.175 -44 -47 -13.175 -44 -47 -7.175 -23 -47 -6.175 -22 -47 -7.175 -13.75 -47 -6.175 -11 -47 -7.175 -4.5 -47 -6.175 0 -47 -7.175 0 -47 -7.175 4.5 -47 -13.175 4.5 -47 -13.175 0 -47 -19.175 4.5 -47 -20.175 0 -47 -20.175 11 -47 -13.175 -4.5 -47 -19.175 -4.5 -47 -19.175 -13.75 -47 -20.175 -11 -47 -20.175 -22 -47 -19.175 -23 -47 -20.175 -33 -47 -19.175 -32.25 -47 -19.175 -41.5 -47 -13.175 -41.5 -47 -20.175 -44 -47 -19.175 32.25 -47 -20.175 33 -47 -19.175 41.5 -47 -20.175 44 -47 -13.175 44 -47 -19.175 23 -47 -20.175 22 -47 -19.175 13.75 -47 -6.175 11 -47 -7.175 13.75 -47 -6.175 22 -47 -7.175 23 -47 -6.175 33 -47 -7.175 32.25 -47 -7.175 41.5 -47 -13.175 41.5 -47 -6.175 44 -44 -20.175 47 -44 -13.175 47 -47 -20.175 44 -47 -13.175 44 -44 -6.175 47 -47 -6.175 44 47 -20.175 44 47 -13.175 44 44 -20.175 47 44 -13.175 47 47 -6.175 44 44 -6.175 47 17.5 -6.175 -22.5 8.75 -6.175 -22.5 17.5 -13.675 -22.5 8.75 -13.675 -22.5 0 -6.175 -22.5 0 -13.675 -22.5 -8.75 -6.175 -22.5 -8.75 -13.675 -22.5 -17.5 -6.175 -22.5 -17.5 -13.675 -22.5 -17.5 -6.175 -22.5 -17.5 -6.175 -11.25 -17.5 -13.675 -22.5 -17.5 -13.675 -11.25 -17.5 -6.175 0 -17.5 -13.675 0 -17.5 -6.175 11.25 -17.5 -13.675 11.25 -17.5 -6.175 22.5 -17.5 -13.675 22.5 -17.5 -6.175 22.5 -8.75 -6.175 22.5 -17.5 -13.675 22.5 -8.75 -13.675 22.5 0 -6.175 22.5 0 -13.675 22.5 8.75 -6.175 22.5 8.75 -13.675 22.5 17.5 -6.175 22.5 17.5 -13.675 22.5 17.5 -6.175 22.5 17.5 -6.175 11.25 17.5 -13.675 22.5 17.5 -13.675 11.25 17.5 -6.175 0 17.5 -13.675 0 17.5 -6.175 -11.25 17.5 -13.675 -11.25 17.5 -6.175 -22.5 17.5 -13.675 -22.5 17.5 -13.675 22.5 17.5 -13.675 11.25 8.75 -13.675 22.5 5.833333 -13.675 11.25 0 -13.675 22.5 -5.833333 -13.675 11.25 -8.75 -13.675 22.5 -17.5 -13.675 11.25 -17.5 -13.675 22.5 5.833333 -13.675 0 17.5 -13.675 0 5.833333 -13.675 -11.25 17.5 -13.675 -11.25 8.75 -13.675 -22.5 17.5 -13.675 -22.5 0 -13.675 -22.5 -5.833333 -13.675 -11.25 -5.833333 -13.675 0 -8.75 -13.675 -22.5 -17.5 -13.675 -11.25 -17.5 -13.675 0 -17.5 -13.675 -22.5 32.25 -19.175 47 33 -20.175 47 41.5 -19.175 47 44 -20.175 47 44 -13.175 47 23 -19.175 47 22 -20.175 47 13.75 -19.175 47 11 -20.175 47 4.5 -19.175 47 0 -20.175 47 0 -13.175 47 -4.5 -19.175 47 -4.5 -13.175 47 -4.5 -7.175 47 0 -7.175 47 0 -6.175 47 4.5 -7.175 47 11 -6.175 47 13.75 -7.175 47 22 -6.175 47 23 -7.175 47 33 -6.175 47 32.25 -7.175 47 41.5 -7.175 47 4.5 -13.175 47 41.5 -13.175 47 44 -6.175 47 -32.25 -7.175 47 -33 -6.175 47 -41.5 -7.175 47 -44 -6.175 47 -44 -13.175 47 -23 -7.175 47 -22 -6.175 47 -13.75 -7.175 47 -11 -6.175 47 -11 -20.175 47 -13.75 -19.175 47 -22 -20.175 47 -23 -19.175 47 -33 -20.175 47 -32.25 -19.175 47 -41.5 -19.175 47 -41.5 -13.175 47 -44 -20.175 47 -32.25 -19.175 -47 -33 -20.175 -47 -41.5 -19.175 -47 -44 -20.175 -47 -44 -13.175 -47 -23 -19.175 -47 -22 -20.175 -47 -13.75 -19.175 -47 -11 -20.175 -47 -4.5 -19.175 -47 0 -20.175 -47 0 -13.175 -47 4.5 -19.175 -47 4.5 -13.175 -47 4.5 -7.175 -47 0 -7.175 -47 0 -6.175 -47 -4.5 -7.175 -47 -11 -6.175 -47 -13.75 -7.175 -47 -22 -6.175 -47 -23 -7.175 -47 -33 -6.175 -47 -32.25 -7.175 -47 -41.5 -7.175 -47 -4.5 -13.175 -47 -41.5 -13.175 -47 -44 -6.175 -47 32.25 -7.175 -47 33 -6.175 -47 41.5 -7.175 -47 44 -6.175 -47 44 -13.175 -47 23 -7.175 -47 22 -6.175 -47 13.75 -7.175 -47 11 -6.175 -47 11 -20.175 -47 13.75 -19.175 -47 22 -20.175 -47 23 -19.175 -47 33 -20.175 -47 32.25 -19.175 -47 41.5 -19.175 -47 41.5 -13.175 -47 44 -20.175 -47 33 -20.175 -47 44 -20.175 -47 36.55556 -20.175 -36.55556 47 -20.175 -44 47 -20.175 -33 36.55556 -20.175 -26.11111 47 -20.175 -22 36.55556 -20.175 -15.66667 47 -20.175 -11 36.55556 -20.175 -5.222222 47 -20.175 0 36.55556 -20.175 5.222222 47 -20.175 11 36.55556 -20.175 15.66667 47 -20.175 22 36.55556 -20.175 26.11111 47 -20.175 33 36.55556 -20.175 36.55556 47 -20.175 44 44 -20.175 47 33 -20.175 47 26.11111 -20.175 36.55556 26.11111 -20.175 26.11111 26.11111 -20.175 15.66667 26.11111 -20.175 5.222222 26.11111 -20.175 -5.222222 26.11111 -20.175 -15.66667 26.11111 -20.175 -26.11111 26.11111 -20.175 -36.55556 22 -20.175 -47 15.66667 -20.175 -36.55556 11 -20.175 -47 5.222222 -20.175 -36.55556 0 -20.175 -47 -5.222222 -20.175 -36.55556 -11 -20.175 -47 -15.66667 -20.175 -36.55556 -22 -20.175 -47 -26.11111 -20.175 -36.55556 -33 -20.175 -47 -36.55556 -20.175 -36.55556 -44 -20.175 -47 -47 -20.175 -44 -47 -20.175 -33 -36.55556 -20.175 -26.11111 -47 -20.175 -22 -36.55556 -20.175 -15.66667 -47 -20.175 -11 -36.55556 -20.175 -5.222222 -47 -20.175 0 -36.55556 -20.175 5.222222 -47 -20.175 11 -36.55556 -20.175 15.66667 -47 -20.175 22 -36.55556 -20.175 26.11111 -47 -20.175 33 -36.55556 -20.175 36.55556 -47 -20.175 44 -44 -20.175 47 -33 -20.175 47 -26.11111 -20.175 36.55556 -22 -20.175 47 -15.66667 -20.175 36.55556 -11 -20.175 47 -5.222222 -20.175 36.55556 0 -20.175 47 5.222222 -20.175 36.55556 11 -20.175 47 15.66667 -20.175 36.55556 22 -20.175 47 15.66667 -20.175 -26.11111 15.66667 -20.175 -15.66667 15.66667 -20.175 -5.222222 15.66667 -20.175 5.222222 15.66667 -20.175 15.66667 15.66667 -20.175 26.11111 5.222222 -20.175 -26.11111 5.222222 -20.175 -15.66667 5.222222 -20.175 -5.222222 5.222222 -20.175 5.222222 5.222222 -20.175 15.66667 5.222222 -20.175 26.11111 -5.222222 -20.175 -26.11111 -5.222222 -20.175 -15.66667 -5.222222 -20.175 -5.222222 -5.222222 -20.175 5.222222 -5.222222 -20.175 15.66667 -5.222222 -20.175 26.11111 -15.66667 -20.175 -26.11111 -15.66667 -20.175 -15.66667 -15.66667 -20.175 -5.222222 -15.66667 -20.175 5.222222 -15.66667 -20.175 15.66667 -15.66667 -20.175 26.11111 -26.11111 -20.175 -26.11111 -26.11111 -20.175 -15.66667 -26.11111 -20.175 -5.222222 -26.11111 -20.175 5.222222 -26.11111 -20.175 15.66667 -26.11111 -20.175 26.11111</float_array>
          <technique_common>
            <accessor source="#Mesh_0-mesh-positions-array" count="888" stride="3">
              <param name="X" type="float"/>
              <param name="Y" type="float"/>
              <param name="Z" type="float"/>
            </accessor>
          </technique_common>
        </source>
        <source id="Mesh_0-mesh-normals">
          <float_array id="Mesh_0-mesh-normals-array" count="201">-0.7071059 0 0.7071077 -0.7071069 0 0.7071067 -0.7071068 0 0.7071068 0 0 1 0.7071068 0 -0.7071068 0.7071069 0 -0.7071067 1 0 0 -0.7071068 0 -0.7071068 -0.7071069 0 -0.7071067 -1 0 0 0.7071068 0 0.7071068 0.707106 0 0.7071076 0.7071059 0 -0.7071077 0 0 -1 -0.707106 0 -0.7071076 0.7071069 0 0.7071067 0 1 0 0 1 -1.94379e-7 0 -1 0 0 -1 0 0 1 -6.97545e-7 0 1 -7.77518e-7 0 -1 -1.94379e-7 0 -1 0 0 -1 0 -2.90644e-7 0 1 2.90644e-7 0 1 0 1 -6.80328e-7 0 1 -1.74386e-7 0 1 -4.35965e-7 0 -1 -1.74386e-7 0 1 1.94379e-7 0 -1 0 0 1 6.97545e-7 0 1 7.77518e-7 0 -1 1.94379e-7 0 -1 0 0 -1 0 2.90644e-7 0 -1 -2.90644e-7 0 -1 0 1 6.80328e-7 0 1 1.74386e-7 0 1 4.35965e-7 0 -1 1.74386e-7 0.707107 0 -0.7071067 0 1 4.0457e-7 0 1 2.02285e-7 0 1 2.02285e-7 0 1 1.39878e-7 0 1 0 0 1 -2.02285e-7 0 1 -2.02285e-7 0 1 0 0 1 0 -0.707107 0 -0.7071067 -0.707107 0 0.7071067 0.707107 0 0.7071067 0 -1 -4.26488e-7 0 -1 4.26488e-7 0 -1 -1.32813e-7 0 -1 2.79756e-7 0 -1 -1.32813e-7 0 -1 -5.68651e-7 0 -1 5.68651e-7 0 -1 1.32813e-7 0 -1 -2.79756e-7 0 -1 1.32813e-7</float_array>
          <technique_common>
            <accessor source="#Mesh_0-mesh-normals-array" count="67" stride="3">
              <param name="X" type="float"/>
              <param name="Y" type="float"/>
              <param name="Z" type="float"/>
            </accessor>
          </technique_common>
        </source>
        <source id="Mesh_0-mesh-map-0">
          <float_array id="Mesh_0-mesh-map-0-array" count="5448">6.5 1.414214 0.5 1.414214 6.5 -1.414214 6.5 -1.414214 0.5 1.414214 0.5 -1.414214 0.5 -1.414214 0.5 1.414214 -5.5 1.414214 0.5 -1.414214 -5.5 1.414214 -5.5 -1.414214 -12 2 -6 2 -12 5 -12 5 -6 2 -6 5 -6 5 -6 2 0 2 -6 5 0 2 0 5 -0.5 1.414214 -6.5 1.414214 -0.5 -1.414214 -0.5 -1.414214 -6.5 1.414214 -6.5 -1.414214 -6.5 -1.414214 -6.5 1.414214 -12.5 1.414214 -6.5 -1.414214 -12.5 1.414214 -12.5 -1.414214 -12 2 -6 2 -12 5 -12 5 -6 2 -6 5 -6 5 -6 2 0 2 -6 5 0 2 0 5 6.5 1.414214 0.5 1.414214 6.5 -1.414214 6.5 -1.414214 0.5 1.414214 0.5 -1.414214 0.5 -1.414214 0.5 1.414214 -5.5 1.414214 0.5 -1.414214 -5.5 1.414214 -5.5 -1.414214 -12 2 -6 2 -12 5 -12 5 -6 2 -6 5 -6 5 -6 2 0 2 -6 5 0 2 0 5 -0.5 1.414214 -6.5 1.414214 -0.5 -1.414214 -0.5 -1.414214 -6.5 1.414214 -6.5 -1.414214 -6.5 -1.414214 -6.5 1.414214 -12.5 1.414214 -6.5 -1.414214 -12.5 1.414214 -12.5 -1.414214 -12 2 -6 2 -12 5 -12 5 -6 2 -6 5 -6 5 -6 2 0 2 -6 5 0 2 0 5 -6.5 -1.414214 -0.5 -1.414214 -6.5 1.414214 -6.5 1.414214 -0.5 -1.414214 -0.5 1.414214 -0.5 1.414214 -0.5 -1.414214 5.5 -1.414214 -0.5 1.414214 5.5 -1.414214 5.5 1.414214 -12 2 -6 2 -12 5 -12 5 -6 2 -6 5 -6 5 -6 2 0 2 -6 5 0 2 0 5 0.5 -1.414214 6.5 -1.414214 0.5 1.414214 0.5 1.414214 6.5 -1.414214 6.5 1.414214 6.5 1.414214 6.5 -1.414214 12.5 -1.414214 6.5 1.414214 12.5 -1.414214 12.5 1.414214 -12 2 -6 2 -12 5 -12 5 -6 2 -6 5 -6 5 -6 2 0 2 -6 5 0 2 0 5 0.5 -1.414214 6.5 -1.414214 0.5 1.414214 0.5 1.414214 6.5 -1.414214 6.5 1.414214 6.5 1.414214 6.5 -1.414214 12.5 -1.414214 6.5 1.414214 12.5 -1.414214 12.5 1.414214 -12 2 -6 2 -12 5 -12 5 -6 2 -6 5 -6 5 -6 2 0 2 -6 5 0 2 0 5 -6.5 -1.414214 -0.5 -1.414214 -6.5 1.414214 -6.5 1.414214 -0.5 -1.414214 -0.5 1.414214 -0.5 1.414214 -0.5 -1.414214 5.5 -1.414214 -0.5 1.414214 5.5 -1.414214 5.5 1.414214 -12 2 -6 2 -12 5 -12 5 -6 2 -6 5 -6 5 -6 2 0 2 -6 5 0 2 0 5 -35 5 -35 0 -26.25 5 -26.25 5 -35 0 -25.75 0 -26.25 5 -25.75 0 -17.5 5 -17.5 5 -25.75 0 -16.5 0 -17.5 5 -16.5 0 -8.75 5 -8.75 5 -16.5 0 -7.25 0 -8.75 5 -7.25 0 0 2 0 2 -7.25 0 2 0 0 2 0 5 -8.75 5 -37 0 -27.75 0 -35 2 -35 2 -27.75 0 -26.25 5 -35 2 -26.25 5 -35 5 -27.75 0 -18.5 0 -26.25 5 -26.25 5 -18.5 0 -17.5 5 -17.5 5 -18.5 0 -9.25 0 -17.5 5 -9.25 0 -8.75 5 -8.75 5 -9.25 0 0 0 -8.75 5 0 0 0 5 -12 0 -6 0 -12 5 -12 5 -6 0 -6 5 -6 5 -6 0 0 0 -6 5 0 0 0 5 -6 -17.5 0 -17.5 -6 -8.75 -6 -8.75 0 -17.5 6 -8.75 -6 -8.75 6 -8.75 6 0 0 -17.5 6 -17.5 6 -8.75 -6 -8.75 6 0 -6 0 -6 0 6 0 6 8.75 -6 0 6 8.75 -6 8.75 -6 8.75 6 8.75 0 17.5 -6 8.75 0 17.5 -6 17.5 6 8.75 6 17.5 0 17.5 -37 0 -27.75 0 -35 2 -35 2 -27.75 0 -26.25 5 -35 2 -26.25 5 -35 5 -27.75 0 -18.5 0 -26.25 5 -26.25 5 -18.5 0 -17.5 5 -17.5 5 -18.5 0 -9.25 0 -17.5 5 -9.25 0 -8.75 5 -8.75 5 -9.25 0 0 0 -8.75 5 0 0 0 5 -12 0 -6 0 -12 5 -12 5 -6 0 -6 5 -6 5 -6 0 0 0 -6 5 0 0 0 5 -35 5 -35 0 -26.25 5 -26.25 5 -35 0 -25.75 0 -26.25 5 -25.75 0 -17.5 5 -17.5 5 -25.75 0 -16.5 0 -17.5 5 -16.5 0 -8.75 5 -8.75 5 -16.5 0 -7.25 0 -8.75 5 -7.25 0 0 2 0 2 -7.25 0 2 0 0 2 0 5 -8.75 5 -6 -17.5 0 -17.5 -6 -8.75 -6 -8.75 0 -17.5 6 -8.75 -6 -8.75 6 -8.75 6 0 0 -17.5 6 -17.5 6 -8.75 -6 -8.75 6 0 -6 0 -6 0 6 0 6 8.75 -6 0 6 8.75 -6 8.75 -6 8.75 6 8.75 0 17.5 -6 8.75 0 17.5 -6 17.5 6 8.75 6 17.5 0 17.5 -35 5 -35 0 -26.25 5 -26.25 5 -35 0 -25.75 0 -26.25 5 -25.75 0 -17.5 5 -17.5 5 -25.75 0 -16.5 0 -17.5 5 -16.5 0 -8.75 5 -8.75 5 -16.5 0 -7.25 0 -8.75 5 -7.25 0 0 2 0 2 -7.25 0 2 0 0 2 0 5 -8.75 5 -37 0 -27.75 0 -35 2 -35 2 -27.75 0 -26.25 5 -35 2 -26.25 5 -35 5 -27.75 0 -18.5 0 -26.25 5 -26.25 5 -18.5 0 -17.5 5 -17.5 5 -18.5 0 -9.25 0 -17.5 5 -9.25 0 -8.75 5 -8.75 5 -9.25 0 0 0 -8.75 5 0 0 0 5 -12 0 -6 0 -12 5 -12 5 -6 0 -6 5 -6 5 -6 0 0 0 -6 5 0 0 0 5 -6 -17.5 0 -17.5 -6 -8.75 -6 -8.75 0 -17.5 6 -8.75 -6 -8.75 6 -8.75 6 0 0 -17.5 6 -17.5 6 -8.75 -6 -8.75 6 0 -6 0 -6 0 6 0 6 8.75 -6 0 6 8.75 -6 8.75 -6 8.75 6 8.75 0 17.5 -6 8.75 0 17.5 -6 17.5 6 8.75 6 17.5 0 17.5 -37 0 -27.75 0 -35 2 -35 2 -27.75 0 -26.25 5 -35 2 -26.25 5 -35 5 -27.75 0 -18.5 0 -26.25 5 -26.25 5 -18.5 0 -17.5 5 -17.5 5 -18.5 0 -9.25 0 -17.5 5 -9.25 0 -8.75 5 -8.75 5 -9.25 0 0 0 -8.75 5 0 0 0 5 -12 0 -6 0 -12 5 -12 5 -6 0 -6 5 -6 5 -6 0 0 0 -6 5 0 0 0 5 -35 5 -35 0 -26.25 5 -26.25 5 -35 0 -25.75 0 -26.25 5 -25.75 0 -17.5 5 -17.5 5 -25.75 0 -16.5 0 -17.5 5 -16.5 0 -8.75 5 -8.75 5 -16.5 0 -7.25 0 -8.75 5 -7.25 0 0 2 0 2 -7.25 0 2 0 0 2 0 5 -8.75 5 -6 -17.5 0 -17.5 -6 -8.75 -6 -8.75 0 -17.5 6 -8.75 -6 -8.75 6 -8.75 6 0 0 -17.5 6 -17.5 6 -8.75 -6 -8.75 6 0 -6 0 -6 0 6 0 6 8.75 -6 0 6 8.75 -6 8.75 -6 8.75 6 8.75 0 17.5 -6 8.75 0 17.5 -6 17.5 6 8.75 6 17.5 0 17.5 -35 5 -35 0 -26.25 5 -26.25 5 -35 0 -25.75 0 -26.25 5 -25.75 0 -17.5 5 -17.5 5 -25.75 0 -16.5 0 -17.5 5 -16.5 0 -8.75 5 -8.75 5 -16.5 0 -7.25 0 -8.75 5 -7.25 0 0 2 0 2 -7.25 0 2 0 0 2 0 5 -8.75 5 -37 0 -27.75 0 -35 2 -35 2 -27.75 0 -26.25 5 -35 2 -26.25 5 -35 5 -27.75 0 -18.5 0 -26.25 5 -26.25 5 -18.5 0 -17.5 5 -17.5 5 -18.5 0 -9.25 0 -17.5 5 -9.25 0 -8.75 5 -8.75 5 -9.25 0 0 0 -8.75 5 0 0 0 5 -12 0 -6 0 -12 5 -12 5 -6 0 -6 5 -6 5 -6 0 0 0 -6 5 0 0 0 5 6 17.5 0 17.5 6 8.75 6 8.75 0 17.5 -6 8.75 6 8.75 -6 8.75 -6 0 0 17.5 -6 17.5 -6 8.75 6 8.75 -6 0 6 0 6 0 -6 0 -6 -8.75 6 0 -6 -8.75 6 -8.75 6 -8.75 -6 -8.75 0 -17.5 6 -8.75 0 -17.5 6 -17.5 -6 -8.75 -6 -17.5 0 -17.5 -37 0 -27.75 0 -35 2 -35 2 -27.75 0 -26.25 5 -35 2 -26.25 5 -35 5 -27.75 0 -18.5 0 -26.25 5 -26.25 5 -18.5 0 -17.5 5 -17.5 5 -18.5 0 -9.25 0 -17.5 5 -9.25 0 -8.75 5 -8.75 5 -9.25 0 0 0 -8.75 5 0 0 0 5 -12 0 -6 0 -12 5 -12 5 -6 0 -6 5 -6 5 -6 0 0 0 -6 5 0 0 0 5 -35 5 -35 0 -26.25 5 -26.25 5 -35 0 -25.75 0 -26.25 5 -25.75 0 -17.5 5 -17.5 5 -25.75 0 -16.5 0 -17.5 5 -16.5 0 -8.75 5 -8.75 5 -16.5 0 -7.25 0 -8.75 5 -7.25 0 0 2 0 2 -7.25 0 2 0 0 2 0 5 -8.75 5 6 17.5 0 17.5 6 8.75 6 8.75 0 17.5 -6 8.75 6 8.75 -6 8.75 -6 0 0 17.5 -6 17.5 -6 8.75 6 8.75 -6 0 6 0 6 0 -6 0 -6 -8.75 6 0 -6 -8.75 6 -8.75 6 -8.75 -6 -8.75 0 -17.5 6 -8.75 0 -17.5 6 -17.5 -6 -8.75 -6 -17.5 0 -17.5 -35 5 -35 0 -26.25 5 -26.25 5 -35 0 -25.75 0 -26.25 5 -25.75 0 -17.5 5 -17.5 5 -25.75 0 -16.5 0 -17.5 5 -16.5 0 -8.75 5 -8.75 5 -16.5 0 -7.25 0 -8.75 5 -7.25 0 0 2 0 2 -7.25 0 2 0 0 2 0 5 -8.75 5 -37 0 -27.75 0 -35 2 -35 2 -27.75 0 -26.25 5 -35 2 -26.25 5 -35 5 -27.75 0 -18.5 0 -26.25 5 -26.25 5 -18.5 0 -17.5 5 -17.5 5 -18.5 0 -9.25 0 -17.5 5 -9.25 0 -8.75 5 -8.75 5 -9.25 0 0 0 -8.75 5 0 0 0 5 -12 0 -6 0 -12 5 -12 5 -6 0 -6 5 -6 5 -6 0 0 0 -6 5 0 0 0 5 6 17.5 0 17.5 6 8.75 6 8.75 0 17.5 -6 8.75 6 8.75 -6 8.75 -6 0 0 17.5 -6 17.5 -6 8.75 6 8.75 -6 0 6 0 6 0 -6 0 -6 -8.75 6 0 -6 -8.75 6 -8.75 6 -8.75 -6 -8.75 0 -17.5 6 -8.75 0 -17.5 6 -17.5 -6 -8.75 -6 -17.5 0 -17.5 -37 0 -27.75 0 -35 2 -35 2 -27.75 0 -26.25 5 -35 2 -26.25 5 -35 5 -27.75 0 -18.5 0 -26.25 5 -26.25 5 -18.5 0 -17.5 5 -17.5 5 -18.5 0 -9.25 0 -17.5 5 -9.25 0 -8.75 5 -8.75 5 -9.25 0 0 0 -8.75 5 0 0 0 5 -12 0 -6 0 -12 5 -12 5 -6 0 -6 5 -6 5 -6 0 0 0 -6 5 0 0 0 5 -35 5 -35 0 -26.25 5 -26.25 5 -35 0 -25.75 0 -26.25 5 -25.75 0 -17.5 5 -17.5 5 -25.75 0 -16.5 0 -17.5 5 -16.5 0 -8.75 5 -8.75 5 -16.5 0 -7.25 0 -8.75 5 -7.25 0 0 2 0 2 -7.25 0 2 0 0 2 0 5 -8.75 5 6 17.5 0 17.5 6 8.75 6 8.75 0 17.5 -6 8.75 6 8.75 -6 8.75 -6 0 0 17.5 -6 17.5 -6 8.75 6 8.75 -6 0 6 0 6 0 -6 0 -6 -8.75 6 0 -6 -8.75 6 -8.75 6 -8.75 -6 -8.75 0 -17.5 6 -8.75 0 -17.5 6 -17.5 -6 -8.75 -6 -17.5 0 -17.5 -14 -2.12132 -7 -2.12132 -14 2.12132 -14 2.12132 -7 -2.12132 -7 2.12132 -7 2.12132 -7 -2.12132 0 -2.12132 -7 2.12132 0 -2.12132 0 2.12132 14.75 13 14 14 5.5 13 5.5 13 14 14 3 14 5.5 13 3 14 3 7 14.75 13 24 13 14 14 14 14 24 13 25 14 25 14 24 13 33.25 13 25 14 33.25 13 36 14 36 14 33.25 13 42.5 13 36 14 42.5 13 47 14 47 14 42.5 13 47 7 47 14 47 7 51.5 13 51.5 13 47 7 51.5 7 51.5 7 47 7 51.5 1 51.5 1 47 7 47 1 51.5 1 47 1 47 0 47 0 47 1 42.5 1 47 0 42.5 1 36 0 36 0 42.5 1 33.25 1 36 0 33.25 1 25 0 25 0 33.25 1 24 1 25 0 24 1 14 0 14 0 24 1 14.75 1 14 0 14.75 1 5.5 1 42.5 13 42.5 7 47 7 47 7 42.5 7 47 1 42.5 7 42.5 1 47 1 5.5 7 3 7 5.5 1 5.5 1 3 7 3 0 5.5 1 3 0 14 0 5.5 7 5.5 13 3 7 79.25 1 80 0 88.5 1 88.5 1 80 0 91 0 88.5 1 91 0 91 7 79.25 1 70 1 80 0 80 0 70 1 69 0 69 0 70 1 60.75 1 69 0 60.75 1 58 0 58 0 60.75 1 51.5 1 58 0 51.5 1 47 0 47 14 51.5 13 58 14 58 14 51.5 13 60.75 13 58 14 60.75 13 69 14 69 14 60.75 13 70 13 69 14 70 13 80 14 80 14 70 13 79.25 13 80 14 79.25 13 88.5 13 88.5 7 91 7 88.5 13 88.5 13 91 7 91 14 88.5 13 91 14 80 14 88.5 7 88.5 1 91 7 -8.75 22.5 -15.66667 26.11111 -17.5 22.5 -17.5 22.5 -15.66667 26.11111 -26.11111 26.11111 -17.5 22.5 -26.11111 26.11111 -26.11111 15.66667 -26.11111 15.66667 -26.11111 26.11111 -36.55556 26.11111 -26.11111 15.66667 -36.55556 26.11111 -36.55556 15.66667 -36.55556 15.66667 -36.55556 26.11111 -47 22 -36.55556 15.66667 -47 22 -47 11 -15.66667 26.11111 -8.75 22.5 -5.222222 26.11111 -5.222222 26.11111 -8.75 22.5 0 22.5 -5.222222 26.11111 0 22.5 5.222222 26.11111 5.222222 26.11111 0 22.5 8.75 22.5 5.222222 26.11111 8.75 22.5 15.66667 26.11111 15.66667 26.11111 8.75 22.5 17.5 22.5 15.66667 26.11111 17.5 22.5 26.11111 26.11111 26.11111 26.11111 17.5 22.5 26.11111 15.66667 26.11111 26.11111 26.11111 15.66667 36.55556 15.66667 36.55556 15.66667 26.11111 15.66667 36.55556 5.222222 36.55556 15.66667 36.55556 5.222222 47 11 47 11 36.55556 5.222222 47 0 47 0 36.55556 5.222222 36.55556 -5.222222 47 0 36.55556 -5.222222 47 -11 47 -11 36.55556 -5.222222 36.55556 -15.66667 47 -11 36.55556 -15.66667 47 -22 47 -22 36.55556 -15.66667 36.55556 -26.11111 47 -22 36.55556 -26.11111 47 -33 47 -33 36.55556 -26.11111 36.55556 -36.55556 47 -33 36.55556 -36.55556 47 -44 47 -44 36.55556 -36.55556 44 -47 44 -47 36.55556 -36.55556 33 -47 33 -47 36.55556 -36.55556 26.11111 -36.55556 33 -47 26.11111 -36.55556 22 -47 22 -47 26.11111 -36.55556 15.66667 -36.55556 22 -47 15.66667 -36.55556 11 -47 11 -47 15.66667 -36.55556 5.222222 -36.55556 11 -47 5.222222 -36.55556 0 -47 0 -47 5.222222 -36.55556 -5.222222 -36.55556 0 -47 -5.222222 -36.55556 -11 -47 -11 -47 -5.222222 -36.55556 -15.66667 -36.55556 -11 -47 -15.66667 -36.55556 -22 -47 -22 -47 -15.66667 -36.55556 -26.11111 -36.55556 -22 -47 -26.11111 -36.55556 -33 -47 -33 -47 -26.11111 -36.55556 -36.55556 -36.55556 -33 -47 -36.55556 -36.55556 -44 -47 -44 -47 -36.55556 -36.55556 -47 -44 -47 -44 -36.55556 -36.55556 -47 -33 -47 -33 -36.55556 -36.55556 -36.55556 -26.11111 -47 -33 -36.55556 -26.11111 -47 -22 -47 -22 -36.55556 -26.11111 -36.55556 -24.8326 -47 -22 -36.55556 -24.8326 -36.55556 -15.66667 -36.55556 -15.66667 -36.55556 -24.8326 -26.11111 -23.55409 -36.55556 -15.66667 -26.11111 -23.55409 -26.11111 -15.66667 -26.11111 -15.66667 -26.11111 -23.55409 -17.5 -22.5 -26.11111 -15.66667 -17.5 -22.5 -17.5 -11.25 17.5 22.5 17.5 11.25 26.11111 15.66667 26.11111 15.66667 17.5 11.25 26.11111 5.222222 26.11111 15.66667 26.11111 5.222222 36.55556 5.222222 36.55556 5.222222 26.11111 5.222222 36.55556 -5.222222 17.5 11.25 17.5 0 26.11111 5.222222 26.11111 5.222222 17.5 0 26.11111 -5.222222 26.11111 5.222222 26.11111 -5.222222 36.55556 -5.222222 36.55556 -5.222222 26.11111 -5.222222 36.55556 -15.66667 17.5 0 17.5 -11.25 26.11111 -5.222222 26.11111 -5.222222 17.5 -11.25 26.11111 -15.66667 26.11111 -5.222222 26.11111 -15.66667 36.55556 -15.66667 36.55556 -15.66667 26.11111 -15.66667 36.55556 -26.11111 17.5 -11.25 17.5 -22.5 26.11111 -15.66667 26.11111 -15.66667 17.5 -22.5 26.11111 -26.11111 26.11111 -15.66667 26.11111 -26.11111 36.55556 -26.11111 36.55556 -26.11111 26.11111 -26.11111 36.55556 -36.55556 26.11111 -26.11111 17.5 -22.5 15.66667 -26.11111 15.66667 -26.11111 17.5 -22.5 8.75 -22.5 15.66667 -26.11111 8.75 -22.5 5.222222 -26.11111 5.222222 -26.11111 8.75 -22.5 0 -22.5 5.222222 -26.11111 0 -22.5 -5.222222 -26.11111 -5.222222 -26.11111 0 -22.5 -8.75 -22.5 -5.222222 -26.11111 -8.75 -22.5 -15.66667 -26.11111 -15.66667 -26.11111 -8.75 -22.5 -17.5 -22.5 -15.66667 -26.11111 -17.5 -22.5 -26.11111 -26.11111 -26.11111 -26.11111 -17.5 -22.5 -26.11111 -23.55409 -26.11111 -26.11111 -26.11111 -23.55409 -36.55556 -24.8326 -26.11111 -15.66667 -17.5 -11.25 -26.11111 -5.222222 -26.11111 -5.222222 -17.5 -11.25 -17.5 0 -26.11111 -5.222222 -17.5 0 -26.11111 5.222222 -26.11111 5.222222 -17.5 0 -17.5 11.25 -26.11111 5.222222 -17.5 11.25 -26.11111 15.66667 -26.11111 15.66667 -17.5 11.25 -17.5 22.5 47 33 47 44 36.55556 36.55556 36.55556 36.55556 47 44 44 47 36.55556 36.55556 44 47 33 47 36.55556 36.55556 33 47 26.11111 36.55556 26.11111 36.55556 33 47 22 47 26.11111 36.55556 22 47 15.66667 36.55556 15.66667 36.55556 22 47 11 47 15.66667 36.55556 11 47 5.222222 36.55556 5.222222 36.55556 11 47 0 47 5.222222 36.55556 0 47 -5.222222 36.55556 -5.222222 36.55556 0 47 -11 47 -5.222222 36.55556 -11 47 -15.66667 36.55556 -15.66667 36.55556 -11 47 -22 47 -15.66667 36.55556 -22 47 -26.11111 36.55556 -26.11111 36.55556 -22 47 -33 47 -26.11111 36.55556 -33 47 -36.55556 36.55556 -36.55556 36.55556 -33 47 -44 47 -36.55556 36.55556 -44 47 -47 44 -47 44 -47 33 -36.55556 36.55556 -36.55556 36.55556 -47 33 -36.55556 26.11111 -36.55556 36.55556 -36.55556 26.11111 -26.11111 26.11111 -47 33 -47 22 -36.55556 26.11111 -36.55556 15.66667 -47 11 -36.55556 5.222222 -36.55556 5.222222 -47 11 -47 0 -36.55556 5.222222 -47 0 -36.55556 -5.222222 -36.55556 -5.222222 -47 0 -47 -11 -36.55556 -5.222222 -47 -11 -36.55556 -15.66667 -36.55556 -15.66667 -47 -11 -47 -22 47 11 47 22 36.55556 15.66667 36.55556 15.66667 47 22 36.55556 26.11111 36.55556 15.66667 36.55556 26.11111 26.11111 26.11111 26.11111 26.11111 36.55556 26.11111 26.11111 36.55556 26.11111 26.11111 26.11111 36.55556 15.66667 36.55556 47 22 47 33 36.55556 26.11111 36.55556 26.11111 47 33 36.55556 36.55556 36.55556 26.11111 36.55556 36.55556 26.11111 36.55556 26.11111 26.11111 15.66667 36.55556 15.66667 26.11111 15.66667 26.11111 15.66667 36.55556 5.222222 36.55556 15.66667 26.11111 5.222222 36.55556 5.222222 26.11111 5.222222 26.11111 5.222222 36.55556 -5.222222 36.55556 5.222222 26.11111 -5.222222 36.55556 -5.222222 26.11111 -5.222222 26.11111 -5.222222 36.55556 -15.66667 36.55556 -5.222222 26.11111 -15.66667 36.55556 -15.66667 26.11111 -15.66667 26.11111 -15.66667 36.55556 -26.11111 36.55556 -15.66667 26.11111 -26.11111 36.55556 -26.11111 26.11111 -26.11111 26.11111 -26.11111 36.55556 -36.55556 36.55556 -26.11111 5.222222 -26.11111 15.66667 -36.55556 15.66667 -36.55556 -24.8326 -36.55556 -26.11111 -26.11111 -26.11111 -26.11111 -26.11111 -36.55556 -26.11111 -26.11111 -36.55556 -26.11111 -26.11111 -26.11111 -36.55556 -15.66667 -36.55556 -36.55556 -36.55556 -26.11111 -36.55556 -36.55556 -26.11111 -26.11111 -26.11111 -15.66667 -36.55556 -15.66667 -26.11111 -15.66667 -26.11111 -15.66667 -36.55556 -5.222222 -36.55556 -15.66667 -26.11111 -5.222222 -36.55556 -5.222222 -26.11111 -5.222222 -26.11111 -5.222222 -36.55556 5.222222 -36.55556 -5.222222 -26.11111 5.222222 -36.55556 5.222222 -26.11111 5.222222 -26.11111 5.222222 -36.55556 15.66667 -36.55556 5.222222 -26.11111 15.66667 -36.55556 15.66667 -26.11111 15.66667 -26.11111 15.66667 -36.55556 26.11111 -36.55556 15.66667 -26.11111 26.11111 -36.55556 26.11111 -26.11111 26.11111 -26.11111 26.11111 -36.55556 36.55556 -36.55556 -36.55556 -5.222222 -36.55556 -15.66667 -26.11111 -15.66667 -36.55556 5.222222 -36.55556 -5.222222 -26.11111 -5.222222 -26.11111 -5.222222 -36.55556 -5.222222 -26.11111 -15.66667 -36.55556 15.66667 -36.55556 5.222222 -26.11111 5.222222 -26.11111 5.222222 -36.55556 5.222222 -26.11111 -5.222222 14 2.12132 7 2.12132 14 -2.12132 14 -2.12132 7 2.12132 7 -2.12132 7 -2.12132 7 2.12132 0 2.12132 7 -2.12132 0 2.12132 0 -2.12132 79.25 1 80 0 88.5 1 88.5 1 80 0 91 0 88.5 1 91 0 91 7 79.25 1 70 1 80 0 80 0 70 1 69 0 69 0 70 1 60.75 1 69 0 60.75 1 58 0 58 0 60.75 1 51.5 1 58 0 51.5 1 47 0 47 0 51.5 1 47 1 47 0 47 1 42.5 1 42.5 1 47 1 42.5 7 42.5 7 47 1 47 7 42.5 7 47 7 42.5 13 42.5 13 47 7 47 14 42.5 13 47 14 36 14 47 1 51.5 1 47 7 47 7 51.5 1 51.5 7 47 7 51.5 7 51.5 13 60.75 13 58 14 51.5 13 51.5 13 58 14 47 14 51.5 13 47 14 47 7 58 14 60.75 13 69 14 69 14 60.75 13 70 13 69 14 70 13 80 14 80 14 70 13 79.25 13 80 14 79.25 13 88.5 13 88.5 7 91 7 88.5 13 88.5 13 91 7 91 14 88.5 13 91 14 80 14 88.5 7 88.5 1 91 7 14.75 13 14 14 5.5 13 5.5 13 14 14 3 14 5.5 13 3 14 3 7 14.75 13 24 13 14 14 14 14 24 13 25 14 25 14 24 13 33.25 13 25 14 33.25 13 36 14 36 14 33.25 13 42.5 13 47 0 42.5 1 36 0 36 0 42.5 1 33.25 1 36 0 33.25 1 25 0 25 0 33.25 1 24 1 25 0 24 1 14 0 14 0 24 1 14.75 1 14 0 14.75 1 5.5 1 5.5 7 3 7 5.5 1 5.5 1 3 7 3 0 5.5 1 3 0 14 0 5.5 7 5.5 13 3 7 14 2.12132 7 2.12132 14 -2.12132 14 -2.12132 7 2.12132 7 -2.12132 7 -2.12132 7 2.12132 0 2.12132 7 -2.12132 0 2.12132 0 -2.12132 -14 -2.12132 -7 -2.12132 -14 2.12132 -14 2.12132 -7 -2.12132 -7 2.12132 -7 2.12132 -7 -2.12132 0 -2.12132 -7 2.12132 0 -2.12132 0 2.12132 -35 0 -26.25 0 -35 7.5 -35 7.5 -26.25 0 -26.25 7.5 -26.25 7.5 -26.25 0 -17.5 0 -26.25 7.5 -17.5 0 -17.5 7.5 -17.5 7.5 -17.5 0 -8.75 0 -17.5 7.5 -8.75 0 -8.75 7.5 -8.75 7.5 -8.75 0 0 0 -8.75 7.5 0 0 0 7.5 -45 0 -33.75 0 -45 7.5 -45 7.5 -33.75 0 -33.75 7.5 -33.75 7.5 -33.75 0 -22.5 0 -33.75 7.5 -22.5 0 -22.5 7.5 -22.5 7.5 -22.5 0 -11.25 0 -22.5 7.5 -11.25 0 -11.25 7.5 -11.25 7.5 -11.25 0 0 0 -11.25 7.5 0 0 0 7.5 -35 0 -26.25 0 -35 7.5 -35 7.5 -26.25 0 -26.25 7.5 -26.25 7.5 -26.25 0 -17.5 0 -26.25 7.5 -17.5 0 -17.5 7.5 -17.5 7.5 -17.5 0 -8.75 0 -17.5 7.5 -8.75 0 -8.75 7.5 -8.75 7.5 -8.75 0 0 0 -8.75 7.5 0 0 0 7.5 -45 0 -33.75 0 -45 7.5 -45 7.5 -33.75 0 -33.75 7.5 -33.75 7.5 -33.75 0 -22.5 0 -33.75 7.5 -22.5 0 -22.5 7.5 -22.5 7.5 -22.5 0 -11.25 0 -22.5 7.5 -11.25 0 -11.25 7.5 -11.25 7.5 -11.25 0 0 0 -11.25 7.5 0 0 0 7.5 -17.5 22.5 -17.5 11.25 -8.75 22.5 -8.75 22.5 -17.5 11.25 -5.833333 11.25 -8.75 22.5 -5.833333 11.25 0 22.5 0 22.5 -5.833333 11.25 5.833333 11.25 0 22.5 5.833333 11.25 8.75 22.5 8.75 22.5 5.833333 11.25 17.5 11.25 8.75 22.5 17.5 11.25 17.5 22.5 -5.833333 11.25 -17.5 11.25 -5.833333 0 -5.833333 0 -17.5 11.25 -17.5 0 -5.833333 0 -17.5 0 -5.833333 -11.25 -5.833333 -11.25 -17.5 0 -17.5 -11.25 -5.833333 -11.25 -17.5 -11.25 -8.75 -22.5 -8.75 -22.5 -17.5 -11.25 -17.5 -22.5 -8.75 -22.5 0 -22.5 -5.833333 -11.25 -5.833333 -11.25 0 -22.5 5.833333 -11.25 -5.833333 -11.25 5.833333 -11.25 -5.833333 0 -5.833333 0 5.833333 -11.25 5.833333 0 -5.833333 0 5.833333 0 -5.833333 11.25 -5.833333 11.25 5.833333 0 5.833333 11.25 0 -22.5 8.75 -22.5 5.833333 -11.25 5.833333 -11.25 8.75 -22.5 17.5 -11.25 5.833333 -11.25 17.5 -11.25 5.833333 0 5.833333 0 17.5 -11.25 17.5 0 5.833333 0 17.5 0 5.833333 11.25 5.833333 11.25 17.5 0 17.5 11.25 8.75 -22.5 17.5 -22.5 17.5 -11.25 14.75 13 14 14 5.5 13 5.5 13 14 14 3 14 5.5 13 3 14 3 7 14.75 13 24 13 14 14 14 14 24 13 25 14 25 14 24 13 33.25 13 25 14 33.25 13 36 14 36 14 33.25 13 42.5 13 36 14 42.5 13 47 14 47 14 42.5 13 47 7 47 14 47 7 51.5 13 51.5 13 47 7 51.5 7 51.5 7 47 7 51.5 1 51.5 1 47 7 47 1 51.5 1 47 1 47 0 47 0 47 1 42.5 1 47 0 42.5 1 36 0 36 0 42.5 1 33.25 1 36 0 33.25 1 25 0 25 0 33.25 1 24 1 25 0 24 1 14 0 14 0 24 1 14.75 1 14 0 14.75 1 5.5 1 42.5 13 42.5 7 47 7 47 7 42.5 7 47 1 42.5 7 42.5 1 47 1 5.5 7 3 7 5.5 1 5.5 1 3 7 3 0 5.5 1 3 0 14 0 5.5 7 5.5 13 3 7 79.25 1 80 0 88.5 1 88.5 1 80 0 91 0 88.5 1 91 0 91 7 79.25 1 70 1 80 0 80 0 70 1 69 0 69 0 70 1 60.75 1 69 0 60.75 1 58 0 58 0 60.75 1 51.5 1 58 0 51.5 1 47 0 47 14 51.5 13 58 14 58 14 51.5 13 60.75 13 58 14 60.75 13 69 14 69 14 60.75 13 70 13 69 14 70 13 80 14 80 14 70 13 79.25 13 80 14 79.25 13 88.5 13 88.5 7 91 7 88.5 13 88.5 13 91 7 91 14 88.5 13 91 14 80 14 88.5 7 88.5 1 91 7 14.75 13 14 14 5.5 13 5.5 13 14 14 3 14 5.5 13 3 14 3 7 14.75 13 24 13 14 14 14 14 24 13 25 14 25 14 24 13 33.25 13 25 14 33.25 13 36 14 36 14 33.25 13 42.5 13 36 14 42.5 13 47 14 47 14 42.5 13 47 7 47 14 47 7 51.5 13 51.5 13 47 7 51.5 7 51.5 7 47 7 51.5 1 51.5 1 47 7 47 1 51.5 1 47 1 47 0 47 0 47 1 42.5 1 47 0 42.5 1 36 0 36 0 42.5 1 33.25 1 36 0 33.25 1 25 0 25 0 33.25 1 24 1 25 0 24 1 14 0 14 0 24 1 14.75 1 14 0 14.75 1 5.5 1 42.5 13 42.5 7 47 7 47 7 42.5 7 47 1 42.5 7 42.5 1 47 1 5.5 7 3 7 5.5 1 5.5 1 3 7 3 0 5.5 1 3 0 14 0 5.5 7 5.5 13 3 7 79.25 1 80 0 88.5 1 88.5 1 80 0 91 0 88.5 1 91 0 91 7 79.25 1 70 1 80 0 80 0 70 1 69 0 69 0 70 1 60.75 1 69 0 60.75 1 58 0 58 0 60.75 1 51.5 1 58 0 51.5 1 47 0 47 14 51.5 13 58 14 58 14 51.5 13 60.75 13 58 14 60.75 13 69 14 69 14 60.75 13 70 13 69 14 70 13 80 14 80 14 70 13 79.25 13 80 14 79.25 13 88.5 13 88.5 7 91 7 88.5 13 88.5 13 91 7 91 14 88.5 13 91 14 80 14 88.5 7 88.5 1 91 7 33 -47 44 -47 36.55556 -36.55556 36.55556 -36.55556 44 -47 47 -44 36.55556 -36.55556 47 -44 47 -33 36.55556 -36.55556 47 -33 36.55556 -26.11111 36.55556 -26.11111 47 -33 47 -22 36.55556 -26.11111 47 -22 36.55556 -15.66667 36.55556 -15.66667 47 -22 47 -11 36.55556 -15.66667 47 -11 36.55556 -5.222222 36.55556 -5.222222 47 -11 47 0 36.55556 -5.222222 47 0 36.55556 5.222222 36.55556 5.222222 47 0 47 11 36.55556 5.222222 47 11 36.55556 15.66667 36.55556 15.66667 47 11 47 22 36.55556 15.66667 47 22 36.55556 26.11111 36.55556 26.11111 47 22 47 33 36.55556 26.11111 47 33 36.55556 36.55556 36.55556 36.55556 47 33 47 44 36.55556 36.55556 47 44 44 47 44 47 33 47 36.55556 36.55556 36.55556 36.55556 33 47 26.11111 36.55556 36.55556 36.55556 26.11111 36.55556 36.55556 26.11111 36.55556 26.11111 26.11111 36.55556 26.11111 26.11111 36.55556 26.11111 26.11111 26.11111 36.55556 15.66667 36.55556 15.66667 26.11111 26.11111 26.11111 15.66667 36.55556 15.66667 26.11111 15.66667 36.55556 5.222222 36.55556 5.222222 26.11111 15.66667 26.11111 5.222222 36.55556 5.222222 26.11111 5.222222 36.55556 -5.222222 36.55556 -5.222222 26.11111 5.222222 26.11111 -5.222222 36.55556 -5.222222 26.11111 -5.222222 36.55556 -15.66667 36.55556 -15.66667 26.11111 -5.222222 26.11111 -15.66667 36.55556 -15.66667 26.11111 -15.66667 36.55556 -26.11111 36.55556 -26.11111 26.11111 -15.66667 26.11111 -26.11111 36.55556 -26.11111 26.11111 -26.11111 36.55556 -36.55556 36.55556 -36.55556 26.11111 -26.11111 26.11111 -36.55556 36.55556 -36.55556 26.11111 -36.55556 33 -47 33 -47 26.11111 -36.55556 22 -47 22 -47 26.11111 -36.55556 15.66667 -36.55556 22 -47 15.66667 -36.55556 11 -47 11 -47 15.66667 -36.55556 5.222222 -36.55556 11 -47 5.222222 -36.55556 0 -47 0 -47 5.222222 -36.55556 -5.222222 -36.55556 0 -47 -5.222222 -36.55556 -11 -47 -11 -47 -5.222222 -36.55556 -15.66667 -36.55556 -11 -47 -15.66667 -36.55556 -22 -47 -22 -47 -15.66667 -36.55556 -26.11111 -36.55556 -22 -47 -26.11111 -36.55556 -33 -47 -33 -47 -26.11111 -36.55556 -36.55556 -36.55556 -33 -47 -36.55556 -36.55556 -44 -47 -44 -47 -36.55556 -36.55556 -47 -44 -47 -44 -36.55556 -36.55556 -47 -33 -47 -33 -36.55556 -36.55556 -36.55556 -26.11111 -47 -33 -36.55556 -26.11111 -47 -22 -47 -22 -36.55556 -26.11111 -36.55556 -15.66667 -47 -22 -36.55556 -15.66667 -47 -11 -47 -11 -36.55556 -15.66667 -36.55556 -5.222222 -47 -11 -36.55556 -5.222222 -47 0 -47 0 -36.55556 -5.222222 -36.55556 5.222222 -47 0 -36.55556 5.222222 -47 11 -47 11 -36.55556 5.222222 -36.55556 15.66667 -47 11 -36.55556 15.66667 -47 22 -47 22 -36.55556 15.66667 -36.55556 26.11111 -47 22 -36.55556 26.11111 -47 33 -47 33 -36.55556 26.11111 -36.55556 36.55556 -47 33 -36.55556 36.55556 -47 44 -47 44 -36.55556 36.55556 -44 47 -44 47 -36.55556 36.55556 -33 47 -33 47 -36.55556 36.55556 -26.11111 36.55556 -33 47 -26.11111 36.55556 -22 47 -22 47 -26.11111 36.55556 -15.66667 36.55556 -22 47 -15.66667 36.55556 -11 47 -11 47 -15.66667 36.55556 -5.222222 36.55556 -11 47 -5.222222 36.55556 0 47 0 47 -5.222222 36.55556 5.222222 36.55556 0 47 5.222222 36.55556 11 47 11 47 5.222222 36.55556 15.66667 36.55556 11 47 15.66667 36.55556 22 47 22 47 15.66667 36.55556 26.11111 36.55556 22 47 26.11111 36.55556 33 47 15.66667 -36.55556 26.11111 -36.55556 15.66667 -26.11111 15.66667 -26.11111 26.11111 -36.55556 26.11111 -26.11111 15.66667 -26.11111 26.11111 -26.11111 15.66667 -15.66667 15.66667 -15.66667 26.11111 -26.11111 26.11111 -15.66667 15.66667 -15.66667 26.11111 -15.66667 15.66667 -5.222222 15.66667 -5.222222 26.11111 -15.66667 26.11111 -5.222222 15.66667 -5.222222 26.11111 -5.222222 15.66667 5.222222 15.66667 5.222222 26.11111 -5.222222 26.11111 5.222222 15.66667 5.222222 26.11111 5.222222 15.66667 15.66667 15.66667 15.66667 26.11111 5.222222 26.11111 15.66667 15.66667 15.66667 26.11111 15.66667 15.66667 26.11111 15.66667 26.11111 26.11111 15.66667 26.11111 26.11111 15.66667 26.11111 26.11111 26.11111 15.66667 36.55556 15.66667 36.55556 26.11111 26.11111 26.11111 36.55556 5.222222 -36.55556 15.66667 -36.55556 5.222222 -26.11111 5.222222 -26.11111 15.66667 -36.55556 15.66667 -26.11111 5.222222 -26.11111 15.66667 -26.11111 5.222222 -15.66667 5.222222 -15.66667 15.66667 -26.11111 15.66667 -15.66667 5.222222 -15.66667 15.66667 -15.66667 5.222222 -5.222222 5.222222 -5.222222 15.66667 -15.66667 15.66667 -5.222222 5.222222 -5.222222 15.66667 -5.222222 5.222222 5.222222 5.222222 5.222222 15.66667 -5.222222 15.66667 5.222222 5.222222 5.222222 15.66667 5.222222 5.222222 15.66667 5.222222 15.66667 15.66667 5.222222 15.66667 15.66667 5.222222 15.66667 15.66667 15.66667 5.222222 26.11111 5.222222 26.11111 15.66667 15.66667 15.66667 26.11111 5.222222 26.11111 15.66667 26.11111 5.222222 36.55556 5.222222 36.55556 15.66667 26.11111 15.66667 36.55556 -5.222222 -36.55556 5.222222 -36.55556 -5.222222 -26.11111 -5.222222 -26.11111 5.222222 -36.55556 5.222222 -26.11111 -5.222222 -26.11111 5.222222 -26.11111 -5.222222 -15.66667 -5.222222 -15.66667 5.222222 -26.11111 5.222222 -15.66667 -5.222222 -15.66667 5.222222 -15.66667 -5.222222 -5.222222 -5.222222 -5.222222 5.222222 -15.66667 5.222222 -5.222222 -5.222222 -5.222222 5.222222 -5.222222 -5.222222 5.222222 -5.222222 5.222222 5.222222 -5.222222 5.222222 5.222222 -5.222222 5.222222 5.222222 5.222222 -5.222222 15.66667 -5.222222 15.66667 5.222222 5.222222 5.222222 15.66667 -5.222222 15.66667 5.222222 15.66667 -5.222222 26.11111 -5.222222 26.11111 5.222222 15.66667 5.222222 26.11111 -5.222222 26.11111 5.222222 26.11111 -5.222222 36.55556 -5.222222 36.55556 5.222222 26.11111 5.222222 36.55556 -15.66667 -36.55556 -5.222222 -36.55556 -15.66667 -26.11111 -15.66667 -26.11111 -5.222222 -36.55556 -5.222222 -26.11111 -15.66667 -26.11111 -5.222222 -26.11111 -15.66667 -15.66667 -15.66667 -15.66667 -5.222222 -26.11111 -5.222222 -15.66667 -15.66667 -15.66667 -5.222222 -15.66667 -15.66667 -5.222222 -15.66667 -5.222222 -5.222222 -15.66667 -5.222222 -5.222222 -15.66667 -5.222222 -5.222222 -5.222222 -15.66667 5.222222 -15.66667 5.222222 -5.222222 -5.222222 -5.222222 5.222222 -15.66667 5.222222 -5.222222 5.222222 -15.66667 15.66667 -15.66667 15.66667 -5.222222 5.222222 -5.222222 15.66667 -15.66667 15.66667 -5.222222 15.66667 -15.66667 26.11111 -15.66667 26.11111 -5.222222 15.66667 -5.222222 26.11111 -15.66667 26.11111 -5.222222 26.11111 -15.66667 36.55556 -15.66667 36.55556 -5.222222 26.11111 -5.222222 36.55556 -36.55556 -26.11111 -36.55556 -36.55556 -26.11111 -36.55556 -26.11111 -36.55556 -15.66667 -36.55556 -26.11111 -26.11111 -26.11111 -26.11111 -15.66667 -36.55556 -15.66667 -26.11111 -26.11111 -26.11111 -15.66667 -26.11111 -26.11111 -15.66667 -26.11111 -15.66667 -15.66667 -26.11111 -15.66667 -15.66667 -26.11111 -15.66667 -15.66667 -15.66667 -26.11111 -5.222222 -26.11111 -5.222222 -15.66667 -15.66667 -15.66667 -5.222222 -26.11111 -5.222222 -15.66667 -5.222222 -26.11111 5.222222 -26.11111 5.222222 -15.66667 -5.222222 -15.66667 5.222222 -26.11111 5.222222 -15.66667 5.222222 -26.11111 15.66667 -26.11111 15.66667 -15.66667 5.222222 -15.66667 15.66667 -26.11111 15.66667 -15.66667 15.66667 -26.11111 26.11111 -26.11111 26.11111 -15.66667 15.66667 -15.66667 26.11111 -26.11111 26.11111 -15.66667 26.11111 -26.11111 36.55556 -26.11111 36.55556 -15.66667 26.11111 -15.66667 36.55556 -36.55556 -15.66667 -36.55556 -26.11111 -26.11111 -26.11111 -26.11111 -26.11111 -36.55556 -26.11111 -26.11111 -36.55556 -36.55556 -15.66667 -26.11111 -26.11111 -26.11111 -15.66667 -36.55556 -5.222222 -36.55556 -15.66667 -26.11111 -15.66667 -36.55556 -5.222222 -26.11111 -15.66667 -26.11111 -5.222222 -36.55556 5.222222 -36.55556 -5.222222 -26.11111 -5.222222 -36.55556 5.222222 -26.11111 -5.222222 -26.11111 5.222222 -36.55556 15.66667 -36.55556 5.222222 -26.11111 5.222222 -36.55556 15.66667 -26.11111 5.222222 -26.11111 15.66667 -36.55556 26.11111 -36.55556 15.66667 -26.11111 15.66667 -36.55556 26.11111 -26.11111 15.66667 -26.11111 26.11111 -36.55556 36.55556 -36.55556 26.11111 -26.11111 26.11111 -36.55556 36.55556 -26.11111 26.11111 -26.11111 36.55556</float_array>
          <technique_common>
            <accessor source="#Mesh_0-mesh-map-0-array" count="2724" stride="2">
              <param name="S" type="float"/>
              <param name="T" type="float"/>
            </accessor>
          </technique_common>
        </source>
        <vertices id="Mesh_0-mesh-vertices">
          <input semantic="POSITION" source="#Mesh_0-mesh-positions"/>
        </vertices>
        <triangles material="매테리얼-material" count="908">
          <input semantic="VERTEX" source="#Mesh_0-mesh-vertices" offset="0"/>
          <input semantic="NORMAL" source="#Mesh_0-mesh-normals" offset="1"/>
          <input semantic="TEXCOORD" source="#Mesh_0-mesh-map-0" offset="2" set="0"/>
          <p>0 0 0 1 0 1 2 0 2 2 1 3 1 1 4 3 1 5 3 2 6 1 2 7 4 2 8 3 2 9 4 2 10 5 2 11 6 3 12 7 3 13 8 3 14 8 3 15 7 3 16 9 3 17 9 3 18 7 3 19 10 3 20 9 3 21 10 3 22 11 3 23 12 4 24 13 4 25 14 4 26 14 4 27 13 4 28 15 4 29 15 5 30 13 5 31 16 5 32 15 4 33 16 4 34 17 4 35 18 6 36 19 6 37 20 6 38 20 6 39 19 6 40 21 6 41 21 6 42 19 6 43 22 6 44 21 6 45 22 6 46 23 6 47 24 7 48 25 7 49 26 7 50 26 8 51 25 8 52 27 8 53 27 7 54 25 7 55 28 7 56 27 7 57 28 7 58 29 7 59 30 9 60 31 9 61 32 9 62 32 9 63 31 9 64 33 9 65 33 9 66 31 9 67 34 9 68 33 9 69 34 9 70 35 9 71 36 10 72 37 10 73 38 10 74 38 10 75 37 10 76 39 10 77 39 11 78 37 11 79 40 11 80 39 10 81 40 10 82 41 10 83 42 3 84 43 3 85 44 3 86 44 3 87 43 3 88 45 3 89 45 3 90 43 3 91 46 3 92 45 3 93 46 3 94 47 3 95 48 12 96 49 12 97 50 12 98 50 5 99 49 5 100 51 5 101 51 4 102 49 4 103 52 4 104 51 4 105 52 4 106 53 4 107 54 13 108 55 13 109 56 13 110 56 13 111 55 13 112 57 13 113 57 13 114 55 13 115 58 13 116 57 13 117 58 13 118 59 13 119 60 2 120 61 2 121 62 2 122 62 2 123 61 2 124 63 2 125 63 1 126 61 1 127 64 1 128 63 2 129 64 2 130 65 2 131 66 9 132 67 9 133 68 9 134 68 9 135 67 9 136 69 9 137 69 9 138 67 9 139 70 9 140 69 9 141 70 9 142 71 9 143 72 7 144 73 7 145 74 7 146 74 7 147 73 7 148 75 7 149 75 14 150 73 14 151 76 14 152 75 7 153 76 7 154 77 7 155 78 13 156 79 13 157 80 13 158 80 13 159 79 13 160 81 13 161 81 13 162 79 13 163 82 13 164 81 13 165 82 13 166 83 13 167 84 10 168 85 10 169 86 10 170 86 15 171 85 15 172 87 15 173 87 10 174 85 10 175 88 10 176 87 10 177 88 10 178 89 10 179 90 6 180 91 6 181 92 6 182 92 6 183 91 6 184 93 6 185 93 6 186 91 6 187 94 6 188 93 6 189 94 6 190 95 6 191 96 16 192 97 16 193 98 16 194 98 16 195 97 16 196 99 16 197 98 16 198 99 16 199 100 16 200 100 16 201 99 16 202 101 16 203 100 16 204 101 16 205 102 16 206 102 16 207 101 16 208 103 16 209 102 17 210 103 17 211 104 17 212 104 16 213 103 16 214 105 16 215 104 16 216 106 16 217 102 16 218 107 18 219 108 18 220 109 18 221 109 18 222 108 18 223 110 18 224 109 18 225 110 18 226 111 18 227 108 18 228 112 18 229 110 18 230 110 18 231 112 18 232 113 18 233 113 18 234 112 18 235 114 18 236 113 18 237 114 18 238 115 18 239 115 18 240 114 18 241 116 18 242 115 18 243 116 18 244 117 18 245 118 3 246 119 3 247 120 3 248 120 3 249 119 3 250 121 3 251 121 3 252 119 3 253 122 3 254 121 3 255 122 3 256 123 3 257 124 9 258 125 9 259 126 9 260 126 9 261 125 9 262 127 9 263 126 9 264 127 9 265 128 9 266 125 9 267 129 9 268 127 9 269 126 9 270 128 9 271 130 9 272 130 9 273 128 9 274 131 9 275 130 9 276 131 9 277 132 9 278 132 9 279 131 9 280 133 9 281 132 9 282 133 9 283 134 9 284 131 9 285 135 9 286 133 9 287 136 16 288 137 16 289 138 16 290 138 16 291 137 16 292 139 16 293 138 16 294 139 16 295 140 16 296 137 16 297 141 16 298 139 16 299 139 16 300 141 16 301 142 16 302 142 16 303 141 16 304 143 16 305 142 16 306 143 16 307 144 16 308 144 16 309 143 16 310 145 16 311 144 16 312 145 16 313 146 16 314 147 13 315 148 13 316 149 13 317 149 13 318 148 13 319 150 13 320 150 13 321 148 13 322 151 13 323 150 13 324 151 13 325 152 13 326 153 18 327 154 18 328 155 18 329 155 18 330 154 18 331 156 18 332 155 18 333 156 18 334 157 18 335 157 18 336 156 18 337 158 18 338 157 18 339 158 18 340 159 18 341 159 18 342 158 18 343 160 18 344 159 19 345 160 19 346 161 19 347 161 18 348 160 18 349 162 18 350 161 18 351 163 18 352 159 18 353 164 9 354 165 9 355 166 9 356 166 9 357 165 9 358 167 9 359 166 9 360 167 9 361 168 9 362 165 9 363 169 9 364 167 9 365 166 9 366 168 9 367 170 9 368 170 9 369 168 9 370 171 9 371 170 9 372 171 9 373 172 9 374 172 9 375 171 9 376 173 9 377 172 9 378 173 9 379 174 9 380 171 9 381 175 9 382 173 9 383 176 16 384 177 16 385 178 16 386 178 16 387 177 16 388 179 16 389 178 20 390 179 20 391 180 20 392 180 16 393 179 16 394 181 16 395 180 16 396 181 16 397 182 16 398 182 16 399 181 16 400 183 16 401 182 21 402 183 21 403 184 21 404 184 16 405 183 16 406 185 16 407 184 16 408 186 16 409 182 16 410 187 18 411 188 18 412 189 18 413 189 22 414 188 22 415 190 22 416 189 18 417 190 18 418 191 18 419 188 18 420 192 18 421 190 18 422 190 23 423 192 23 424 193 23 425 193 18 426 192 18 427 194 18 428 193 24 429 194 24 430 195 24 431 195 18 432 194 18 433 196 18 434 195 18 435 196 18 436 197 18 437 198 6 438 199 6 439 200 6 440 200 6 441 199 6 442 201 6 443 201 6 444 199 6 445 202 6 446 201 6 447 202 6 448 203 6 449 204 3 450 205 3 451 206 3 452 206 25 453 205 25 454 207 25 455 206 3 456 207 3 457 208 3 458 205 3 459 209 3 460 207 3 461 206 3 462 208 3 463 210 3 464 210 3 465 208 3 466 211 3 467 210 3 468 211 3 469 212 3 470 212 26 471 211 26 472 213 26 473 212 3 474 213 3 475 214 3 476 211 3 477 215 3 478 213 3 479 216 16 480 217 16 481 218 16 482 218 27 483 217 27 484 219 27 485 218 16 486 219 16 487 220 16 488 217 16 489 221 16 490 219 16 491 219 28 492 221 28 493 222 28 494 222 16 495 221 16 496 223 16 497 222 29 498 223 29 499 224 29 500 224 16 501 223 16 502 225 16 503 224 16 504 225 16 505 226 16 506 227 9 507 228 9 508 229 9 509 229 9 510 228 9 511 230 9 512 230 9 513 228 9 514 231 9 515 230 9 516 231 9 517 232 9 518 233 18 519 234 18 520 235 18 521 235 18 522 234 18 523 236 18 524 235 30 525 236 30 526 237 30 527 237 18 528 236 18 529 238 18 530 237 18 531 238 18 532 239 18 533 239 18 534 238 18 535 240 18 536 239 22 537 240 22 538 241 22 539 241 18 540 240 18 541 242 18 542 241 18 543 243 18 544 239 18 545 244 3 546 245 3 547 246 3 548 246 25 549 245 25 550 247 25 551 246 3 552 247 3 553 248 3 554 245 3 555 249 3 556 247 3 557 246 3 558 248 3 559 250 3 560 250 3 561 248 3 562 251 3 563 250 3 564 251 3 565 252 3 566 252 26 567 251 26 568 253 26 569 252 3 570 253 3 571 254 3 572 251 3 573 255 3 574 253 3 575 256 16 576 257 16 577 258 16 578 258 16 579 257 16 580 259 16 581 258 16 582 259 16 583 260 16 584 260 16 585 259 16 586 261 16 587 260 16 588 261 16 589 262 16 590 262 16 591 261 16 592 263 16 593 262 31 594 263 31 595 264 31 596 264 16 597 263 16 598 265 16 599 264 16 600 266 16 601 262 16 602 267 18 603 268 18 604 269 18 605 269 18 606 268 18 607 270 18 608 269 18 609 270 18 610 271 18 611 268 18 612 272 18 613 270 18 614 270 18 615 272 18 616 273 18 617 273 18 618 272 18 619 274 18 620 273 18 621 274 18 622 275 18 623 275 18 624 274 18 625 276 18 626 275 18 627 276 18 628 277 18 629 278 13 630 279 13 631 280 13 632 280 13 633 279 13 634 281 13 635 281 13 636 279 13 637 282 13 638 281 13 639 282 13 640 283 13 641 284 6 642 285 6 643 286 6 644 286 6 645 285 6 646 287 6 647 286 6 648 287 6 649 288 6 650 285 6 651 289 6 652 287 6 653 286 6 654 288 6 655 290 6 656 290 6 657 288 6 658 291 6 659 290 6 660 291 6 661 292 6 662 292 6 663 291 6 664 293 6 665 292 6 666 293 6 667 294 6 668 291 6 669 295 6 670 293 6 671 296 16 672 297 16 673 298 16 674 298 16 675 297 16 676 299 16 677 298 16 678 299 16 679 300 16 680 297 16 681 301 16 682 299 16 683 299 16 684 301 16 685 302 16 686 302 16 687 301 16 688 303 16 689 302 16 690 303 16 691 304 16 692 304 16 693 303 16 694 305 16 695 304 16 696 305 16 697 306 16 698 307 3 699 308 3 700 309 3 701 309 3 702 308 3 703 310 3 704 310 3 705 308 3 706 311 3 707 310 3 708 311 3 709 312 3 710 313 18 711 314 18 712 315 18 713 315 18 714 314 18 715 316 18 716 315 18 717 316 18 718 317 18 719 317 18 720 316 18 721 318 18 722 317 18 723 318 18 724 319 18 725 319 18 726 318 18 727 320 18 728 319 32 729 320 32 730 321 32 731 321 18 732 320 18 733 322 18 734 321 18 735 323 18 736 319 18 737 324 6 738 325 6 739 326 6 740 326 6 741 325 6 742 327 6 743 326 6 744 327 6 745 328 6 746 325 6 747 329 6 748 327 6 749 326 6 750 328 6 751 330 6 752 330 6 753 328 6 754 331 6 755 330 6 756 331 6 757 332 6 758 332 6 759 331 6 760 333 6 761 332 6 762 333 6 763 334 6 764 331 6 765 335 6 766 333 6 767 336 16 768 337 16 769 338 16 770 338 16 771 337 16 772 339 16 773 338 33 774 339 33 775 340 33 776 340 16 777 339 16 778 341 16 779 340 16 780 341 16 781 342 16 782 342 16 783 341 16 784 343 16 785 342 34 786 343 34 787 344 34 788 344 16 789 343 16 790 345 16 791 344 16 792 346 16 793 342 16 794 347 18 795 348 18 796 349 18 797 349 35 798 348 35 799 350 35 800 349 18 801 350 18 802 351 18 803 348 18 804 352 18 805 350 18 806 350 36 807 352 36 808 353 36 809 353 18 810 352 18 811 354 18 812 353 37 813 354 37 814 355 37 815 355 18 816 354 18 817 356 18 818 355 18 819 356 18 820 357 18 821 358 9 822 359 9 823 360 9 824 360 9 825 359 9 826 361 9 827 361 9 828 359 9 829 362 9 830 361 9 831 362 9 832 363 9 833 364 13 834 365 13 835 366 13 836 366 38 837 365 38 838 367 38 839 366 13 840 367 13 841 368 13 842 365 13 843 369 13 844 367 13 845 366 13 846 368 13 847 370 13 848 370 13 849 368 13 850 371 13 851 370 13 852 371 13 853 372 13 854 372 39 855 371 39 856 373 39 857 372 13 858 373 13 859 374 13 860 371 13 861 375 13 862 373 13 863 376 16 864 377 16 865 378 16 866 378 40 867 377 40 868 379 40 869 378 16 870 379 16 871 380 16 872 377 16 873 381 16 874 379 16 875 379 41 876 381 41 877 382 41 878 382 16 879 381 16 880 383 16 881 382 42 882 383 42 883 384 42 884 384 16 885 383 16 886 385 16 887 384 16 888 385 16 889 386 16 890 387 6 891 388 6 892 389 6 893 389 6 894 388 6 895 390 6 896 390 6 897 388 6 898 391 6 899 390 6 900 391 6 901 392 6 902 393 18 903 394 18 904 395 18 905 395 18 906 394 18 907 396 18 908 395 43 909 396 43 910 397 43 911 397 18 912 396 18 913 398 18 914 397 18 915 398 18 916 399 18 917 399 18 918 398 18 919 400 18 920 399 35 921 400 35 922 401 35 923 401 18 924 400 18 925 402 18 926 401 18 927 403 18 928 399 18 929 404 13 930 405 13 931 406 13 932 406 38 933 405 38 934 407 38 935 406 13 936 407 13 937 408 13 938 405 13 939 409 13 940 407 13 941 406 13 942 408 13 943 410 13 944 410 13 945 408 13 946 411 13 947 410 13 948 411 13 949 412 13 950 412 39 951 411 39 952 413 39 953 412 13 954 413 13 955 414 13 956 411 13 957 415 13 958 413 13 959 416 4 960 417 4 961 418 4 962 418 44 963 417 44 964 419 44 965 419 4 966 417 4 967 420 4 968 419 4 969 420 4 970 421 4 971 422 6 972 423 6 973 424 6 974 424 6 975 423 6 976 425 6 977 424 6 978 425 6 979 426 6 980 422 6 981 427 6 982 423 6 983 423 6 984 427 6 985 428 6 986 428 6 987 427 6 988 429 6 989 428 6 990 429 6 991 430 6 992 430 6 993 429 6 994 431 6 995 430 6 996 431 6 997 432 6 998 432 6 999 431 6 1000 433 6 1001 432 6 1002 433 6 1003 434 6 1004 434 6 1005 433 6 1006 435 6 1007 435 6 1008 433 6 1009 436 6 1010 436 6 1011 433 6 1012 437 6 1013 436 6 1014 437 6 1015 438 6 1016 438 6 1017 437 6 1018 439 6 1019 438 6 1020 439 6 1021 440 6 1022 440 6 1023 439 6 1024 441 6 1025 440 6 1026 441 6 1027 442 6 1028 442 6 1029 441 6 1030 443 6 1031 442 6 1032 443 6 1033 444 6 1034 444 6 1035 443 6 1036 445 6 1037 444 6 1038 445 6 1039 446 6 1040 431 6 1041 447 6 1042 433 6 1043 433 6 1044 447 6 1045 437 6 1046 447 6 1047 439 6 1048 437 6 1049 448 6 1050 426 6 1051 446 6 1052 446 6 1053 426 6 1054 449 6 1055 446 6 1056 449 6 1057 444 6 1058 448 6 1059 424 6 1060 426 6 1061 450 6 1062 451 6 1063 452 6 1064 452 6 1065 451 6 1066 453 6 1067 452 6 1068 453 6 1069 454 6 1070 450 6 1071 455 6 1072 451 6 1073 451 6 1074 455 6 1075 456 6 1076 456 6 1077 455 6 1078 457 6 1079 456 6 1080 457 6 1081 458 6 1082 458 6 1083 457 6 1084 436 6 1085 458 6 1086 436 6 1087 438 6 1088 432 6 1089 434 6 1090 459 6 1091 459 6 1092 434 6 1093 460 6 1094 459 6 1095 460 6 1096 461 6 1097 461 6 1098 460 6 1099 462 6 1100 461 6 1101 462 6 1102 463 6 1103 463 6 1104 462 6 1105 464 6 1106 463 6 1107 464 6 1108 465 6 1109 466 6 1110 454 6 1111 465 6 1112 465 6 1113 454 6 1114 467 6 1115 465 6 1116 467 6 1117 463 6 1118 466 6 1119 452 6 1120 454 6 1121 468 16 1122 469 16 1123 470 16 1124 470 45 1125 469 45 1126 471 45 1127 470 16 1128 471 16 1129 472 16 1130 472 16 1131 471 16 1132 473 16 1133 472 16 1134 473 16 1135 474 16 1136 474 16 1137 473 16 1138 475 16 1139 474 16 1140 475 16 1141 476 16 1142 469 46 1143 468 46 1144 477 46 1145 477 16 1146 468 16 1147 478 16 1148 477 16 1149 478 16 1150 479 16 1151 479 16 1152 478 16 1153 480 16 1154 479 46 1155 480 46 1156 481 46 1157 481 16 1158 480 16 1159 482 16 1160 481 47 1161 482 47 1162 483 47 1163 483 16 1164 482 16 1165 484 16 1166 483 16 1167 484 16 1168 485 16 1169 485 16 1170 484 16 1171 486 16 1172 485 16 1173 486 16 1174 487 16 1175 487 16 1176 486 16 1177 488 16 1178 488 16 1179 486 16 1180 489 16 1181 488 16 1182 489 16 1183 490 16 1184 490 16 1185 489 16 1186 491 16 1187 490 16 1188 491 16 1189 492 16 1190 492 16 1191 491 16 1192 493 16 1193 492 16 1194 493 16 1195 494 16 1196 494 16 1197 493 16 1198 495 16 1199 494 16 1200 495 16 1201 496 16 1202 496 16 1203 495 16 1204 497 16 1205 497 16 1206 495 16 1207 498 16 1208 498 16 1209 495 16 1210 499 16 1211 498 16 1212 499 16 1213 500 16 1214 500 48 1215 499 48 1216 501 48 1217 500 16 1218 501 16 1219 502 16 1220 502 16 1221 501 16 1222 503 16 1223 502 49 1224 503 49 1225 504 49 1226 504 16 1227 503 16 1228 505 16 1229 504 49 1230 505 49 1231 506 49 1232 506 16 1233 505 16 1234 507 16 1235 506 16 1236 507 16 1237 508 16 1238 508 48 1239 507 48 1240 509 48 1241 508 16 1242 509 16 1243 510 16 1244 510 16 1245 509 16 1246 511 16 1247 510 16 1248 511 16 1249 512 16 1250 512 16 1251 511 16 1252 513 16 1253 513 16 1254 511 16 1255 514 16 1256 514 16 1257 511 16 1258 515 16 1259 514 16 1260 515 16 1261 516 16 1262 516 16 1263 515 16 1264 517 16 1265 516 16 1266 517 16 1267 518 16 1268 518 16 1269 517 16 1270 519 16 1271 518 16 1272 519 16 1273 520 16 1274 520 16 1275 519 16 1276 521 16 1277 520 16 1278 521 16 1279 522 16 1280 482 16 1281 523 16 1282 484 16 1283 484 16 1284 523 16 1285 524 16 1286 484 16 1287 524 16 1288 486 16 1289 486 16 1290 524 16 1291 489 16 1292 523 16 1293 525 16 1294 524 16 1295 524 16 1296 525 16 1297 526 16 1298 524 16 1299 526 16 1300 489 16 1301 489 16 1302 526 16 1303 491 16 1304 525 16 1305 527 16 1306 526 16 1307 526 16 1308 527 16 1309 528 16 1310 526 16 1311 528 16 1312 491 16 1313 491 16 1314 528 16 1315 493 16 1316 527 16 1317 529 16 1318 528 16 1319 528 16 1320 529 16 1321 530 16 1322 528 16 1323 530 16 1324 493 16 1325 493 16 1326 530 16 1327 495 16 1328 530 50 1329 529 50 1330 531 50 1331 531 16 1332 529 16 1333 532 16 1334 531 51 1335 532 51 1336 533 51 1337 533 16 1338 532 16 1339 534 16 1340 533 16 1341 534 16 1342 535 16 1343 535 16 1344 534 16 1345 536 16 1346 535 51 1347 536 51 1348 537 51 1349 537 16 1350 536 16 1351 521 16 1352 537 50 1353 521 50 1354 538 50 1355 538 16 1356 521 16 1357 519 16 1358 538 16 1359 519 16 1360 517 16 1361 520 16 1362 522 16 1363 539 16 1364 539 16 1365 522 16 1366 540 16 1367 539 16 1368 540 16 1369 541 16 1370 541 16 1371 540 16 1372 542 16 1373 541 16 1374 542 16 1375 472 16 1376 472 16 1377 542 16 1378 470 16 1379 543 16 1380 544 16 1381 545 16 1382 545 16 1383 544 16 1384 546 16 1385 545 16 1386 546 16 1387 547 16 1388 545 16 1389 547 16 1390 548 16 1391 548 16 1392 547 16 1393 549 16 1394 548 52 1395 549 52 1396 550 52 1397 550 16 1398 549 16 1399 551 16 1400 550 53 1401 551 53 1402 552 53 1403 552 16 1404 551 16 1405 553 16 1406 552 16 1407 553 16 1408 554 16 1409 554 16 1410 553 16 1411 555 16 1412 554 53 1413 555 53 1414 556 53 1415 556 16 1416 555 16 1417 557 16 1418 556 52 1419 557 52 1420 558 52 1421 558 16 1422 557 16 1423 559 16 1424 558 16 1425 559 16 1426 560 16 1427 560 16 1428 559 16 1429 561 16 1430 560 16 1431 561 16 1432 562 16 1433 562 16 1434 563 16 1435 560 16 1436 560 16 1437 563 16 1438 473 16 1439 560 16 1440 473 16 1441 471 16 1442 563 16 1443 475 16 1444 473 16 1445 474 16 1446 476 16 1447 564 16 1448 564 16 1449 476 16 1450 565 16 1451 564 16 1452 565 16 1453 566 16 1454 566 16 1455 565 16 1456 567 16 1457 566 16 1458 567 16 1459 518 16 1460 518 16 1461 567 16 1462 516 16 1463 487 16 1464 568 16 1465 485 16 1466 485 16 1467 568 16 1468 569 16 1469 485 16 1470 569 16 1471 483 16 1472 483 16 1473 569 16 1474 548 16 1475 483 16 1476 548 16 1477 550 16 1478 568 16 1479 543 16 1480 569 16 1481 569 16 1482 543 16 1483 545 16 1484 569 16 1485 545 16 1486 548 16 1487 483 16 1488 550 16 1489 481 16 1490 481 16 1491 550 16 1492 552 16 1493 481 16 1494 552 16 1495 479 16 1496 479 16 1497 552 16 1498 554 16 1499 479 16 1500 554 16 1501 477 16 1502 477 16 1503 554 16 1504 556 16 1505 477 16 1506 556 16 1507 469 16 1508 469 16 1509 556 16 1510 558 16 1511 469 16 1512 558 16 1513 471 16 1514 471 16 1515 558 16 1516 560 16 1517 541 16 1518 472 16 1519 474 16 1520 517 16 1521 515 16 1522 538 16 1523 538 16 1524 515 16 1525 509 16 1526 538 16 1527 509 16 1528 507 16 1529 511 16 1530 509 16 1531 515 16 1532 538 16 1533 507 16 1534 537 16 1535 537 16 1536 507 16 1537 505 16 1538 537 16 1539 505 16 1540 535 16 1541 535 16 1542 505 16 1543 503 16 1544 535 16 1545 503 16 1546 533 16 1547 533 16 1548 503 16 1549 501 16 1550 533 16 1551 501 16 1552 531 16 1553 531 16 1554 501 16 1555 499 16 1556 531 16 1557 499 16 1558 530 16 1559 530 16 1560 499 16 1561 495 16 1562 566 16 1563 518 16 1564 520 16 1565 564 16 1566 566 16 1567 539 16 1568 539 16 1569 566 16 1570 520 16 1571 474 16 1572 564 16 1573 541 16 1574 541 16 1575 564 16 1576 539 16 1577 570 7 1578 571 7 1579 572 7 1580 572 54 1581 571 54 1582 573 54 1583 573 7 1584 571 7 1585 574 7 1586 573 7 1587 574 7 1588 575 7 1589 576 9 1590 577 9 1591 578 9 1592 578 9 1593 577 9 1594 579 9 1595 578 9 1596 579 9 1597 580 9 1598 576 9 1599 581 9 1600 577 9 1601 577 9 1602 581 9 1603 582 9 1604 582 9 1605 581 9 1606 583 9 1607 582 9 1608 583 9 1609 584 9 1610 584 9 1611 583 9 1612 585 9 1613 584 9 1614 585 9 1615 586 9 1616 586 9 1617 585 9 1618 587 9 1619 586 9 1620 587 9 1621 588 9 1622 588 9 1623 587 9 1624 589 9 1625 589 9 1626 587 9 1627 590 9 1628 589 9 1629 590 9 1630 591 9 1631 591 9 1632 590 9 1633 592 9 1634 591 9 1635 592 9 1636 593 9 1637 587 9 1638 585 9 1639 590 9 1640 590 9 1641 585 9 1642 594 9 1643 590 9 1644 594 9 1645 595 9 1646 596 9 1647 597 9 1648 595 9 1649 595 9 1650 597 9 1651 592 9 1652 595 9 1653 592 9 1654 590 9 1655 597 9 1656 596 9 1657 598 9 1658 598 9 1659 596 9 1660 599 9 1661 598 9 1662 599 9 1663 600 9 1664 600 9 1665 599 9 1666 601 9 1667 600 9 1668 601 9 1669 602 9 1670 603 9 1671 580 9 1672 602 9 1673 602 9 1674 580 9 1675 604 9 1676 602 9 1677 604 9 1678 600 9 1679 603 9 1680 578 9 1681 580 9 1682 605 9 1683 606 9 1684 607 9 1685 607 9 1686 606 9 1687 608 9 1688 607 9 1689 608 9 1690 609 9 1691 605 9 1692 610 9 1693 606 9 1694 606 9 1695 610 9 1696 611 9 1697 611 9 1698 610 9 1699 612 9 1700 611 9 1701 612 9 1702 593 9 1703 593 9 1704 612 9 1705 591 9 1706 586 9 1707 588 9 1708 613 9 1709 613 9 1710 588 9 1711 614 9 1712 613 9 1713 614 9 1714 615 9 1715 615 9 1716 614 9 1717 616 9 1718 615 9 1719 616 9 1720 617 9 1721 617 9 1722 616 9 1723 618 9 1724 617 9 1725 618 9 1726 619 9 1727 620 9 1728 609 9 1729 619 9 1730 619 9 1731 609 9 1732 621 9 1733 619 9 1734 621 9 1735 617 9 1736 620 9 1737 607 9 1738 609 9 1739 622 2 1740 623 2 1741 624 2 1742 624 55 1743 623 55 1744 625 55 1745 625 2 1746 623 2 1747 626 2 1748 625 2 1749 626 2 1750 627 2 1751 628 10 1752 629 10 1753 630 10 1754 630 56 1755 629 56 1756 631 56 1757 631 10 1758 629 10 1759 632 10 1760 631 10 1761 632 10 1762 633 10 1763 634 3 1764 635 3 1765 636 3 1766 636 3 1767 635 3 1768 637 3 1769 637 3 1770 635 3 1771 638 3 1772 637 3 1773 638 3 1774 639 3 1775 639 3 1776 638 3 1777 640 3 1778 639 3 1779 640 3 1780 641 3 1781 641 3 1782 640 3 1783 642 3 1784 641 3 1785 642 3 1786 643 3 1787 644 6 1788 645 6 1789 646 6 1790 646 6 1791 645 6 1792 647 6 1793 647 6 1794 645 6 1795 648 6 1796 647 6 1797 648 6 1798 649 6 1799 649 6 1800 648 6 1801 650 6 1802 649 6 1803 650 6 1804 651 6 1805 651 6 1806 650 6 1807 652 6 1808 651 6 1809 652 6 1810 653 6 1811 654 13 1812 655 13 1813 656 13 1814 656 13 1815 655 13 1816 657 13 1817 657 13 1818 655 13 1819 658 13 1820 657 13 1821 658 13 1822 659 13 1823 659 13 1824 658 13 1825 660 13 1826 659 13 1827 660 13 1828 661 13 1829 661 13 1830 660 13 1831 662 13 1832 661 13 1833 662 13 1834 663 13 1835 664 9 1836 665 9 1837 666 9 1838 666 9 1839 665 9 1840 667 9 1841 667 9 1842 665 9 1843 668 9 1844 667 9 1845 668 9 1846 669 9 1847 669 9 1848 668 9 1849 670 9 1850 669 9 1851 670 9 1852 671 9 1853 671 9 1854 670 9 1855 672 9 1856 671 9 1857 672 9 1858 673 9 1859 674 16 1860 675 16 1861 676 16 1862 676 16 1863 675 16 1864 677 16 1865 676 16 1866 677 16 1867 678 16 1868 678 16 1869 677 16 1870 679 16 1871 678 16 1872 679 16 1873 680 16 1874 680 16 1875 679 16 1876 681 16 1877 680 16 1878 681 16 1879 682 16 1880 677 16 1881 675 16 1882 683 16 1883 683 16 1884 675 16 1885 684 16 1886 683 16 1887 684 16 1888 685 16 1889 685 16 1890 684 16 1891 686 16 1892 685 16 1893 686 16 1894 687 16 1895 687 16 1896 686 16 1897 688 16 1898 687 16 1899 689 16 1900 685 16 1901 685 16 1902 689 16 1903 690 16 1904 685 16 1905 690 16 1906 683 16 1907 683 16 1908 690 16 1909 691 16 1910 683 16 1911 691 16 1912 677 16 1913 677 16 1914 691 16 1915 679 16 1916 689 16 1917 692 16 1918 690 16 1919 690 16 1920 692 16 1921 693 16 1922 690 16 1923 693 16 1924 691 16 1925 691 16 1926 693 16 1927 694 16 1928 691 16 1929 694 16 1930 679 16 1931 679 16 1932 694 16 1933 681 16 1934 692 16 1935 695 16 1936 693 16 1937 696 3 1938 697 3 1939 698 3 1940 698 3 1941 697 3 1942 699 3 1943 698 3 1944 699 3 1945 700 3 1946 696 3 1947 701 3 1948 697 3 1949 697 3 1950 701 3 1951 702 3 1952 702 3 1953 701 3 1954 703 3 1955 702 3 1956 703 3 1957 704 3 1958 704 3 1959 703 3 1960 705 3 1961 704 3 1962 705 3 1963 706 3 1964 706 3 1965 705 3 1966 707 3 1967 706 3 1968 707 3 1969 708 3 1970 708 3 1971 707 3 1972 709 3 1973 709 3 1974 707 3 1975 710 3 1976 710 3 1977 707 3 1978 711 3 1979 710 3 1980 711 3 1981 712 3 1982 712 3 1983 711 3 1984 713 3 1985 712 3 1986 713 3 1987 714 3 1988 714 3 1989 713 3 1990 715 3 1991 714 3 1992 715 3 1993 716 3 1994 716 3 1995 715 3 1996 717 3 1997 716 3 1998 717 3 1999 718 3 2000 718 3 2001 717 3 2002 719 3 2003 718 3 2004 719 3 2005 720 3 2006 705 3 2007 721 3 2008 707 3 2009 707 3 2010 721 3 2011 711 3 2012 721 3 2013 713 3 2014 711 3 2015 722 3 2016 700 3 2017 720 3 2018 720 3 2019 700 3 2020 723 3 2021 720 3 2022 723 3 2023 718 3 2024 722 3 2025 698 3 2026 700 3 2027 724 3 2028 725 3 2029 726 3 2030 726 3 2031 725 3 2032 727 3 2033 726 3 2034 727 3 2035 728 3 2036 724 3 2037 729 3 2038 725 3 2039 725 3 2040 729 3 2041 730 3 2042 730 3 2043 729 3 2044 731 3 2045 730 3 2046 731 3 2047 732 3 2048 732 3 2049 731 3 2050 710 3 2051 732 3 2052 710 3 2053 712 3 2054 706 3 2055 708 3 2056 733 3 2057 733 3 2058 708 3 2059 734 3 2060 733 3 2061 734 3 2062 735 3 2063 735 3 2064 734 3 2065 736 3 2066 735 3 2067 736 3 2068 737 3 2069 737 3 2070 736 3 2071 738 3 2072 737 3 2073 738 3 2074 739 3 2075 740 3 2076 728 3 2077 739 3 2078 739 3 2079 728 3 2080 741 3 2081 739 3 2082 741 3 2083 737 3 2084 740 3 2085 726 3 2086 728 3 2087 742 13 2088 743 13 2089 744 13 2090 744 13 2091 743 13 2092 745 13 2093 744 13 2094 745 13 2095 746 13 2096 742 13 2097 747 13 2098 743 13 2099 743 13 2100 747 13 2101 748 13 2102 748 13 2103 747 13 2104 749 13 2105 748 13 2106 749 13 2107 750 13 2108 750 13 2109 749 13 2110 751 13 2111 750 13 2112 751 13 2113 752 13 2114 752 13 2115 751 13 2116 753 13 2117 752 13 2118 753 13 2119 754 13 2120 754 13 2121 753 13 2122 755 13 2123 755 13 2124 753 13 2125 756 13 2126 756 13 2127 753 13 2128 757 13 2129 756 13 2130 757 13 2131 758 13 2132 758 13 2133 757 13 2134 759 13 2135 758 13 2136 759 13 2137 760 13 2138 760 13 2139 759 13 2140 761 13 2141 760 13 2142 761 13 2143 762 13 2144 762 13 2145 761 13 2146 763 13 2147 762 13 2148 763 13 2149 764 13 2150 764 13 2151 763 13 2152 765 13 2153 764 13 2154 765 13 2155 766 13 2156 751 13 2157 767 13 2158 753 13 2159 753 13 2160 767 13 2161 757 13 2162 767 13 2163 759 13 2164 757 13 2165 768 13 2166 746 13 2167 766 13 2168 766 13 2169 746 13 2170 769 13 2171 766 13 2172 769 13 2173 764 13 2174 768 13 2175 744 13 2176 746 13 2177 770 13 2178 771 13 2179 772 13 2180 772 13 2181 771 13 2182 773 13 2183 772 13 2184 773 13 2185 774 13 2186 770 13 2187 775 13 2188 771 13 2189 771 13 2190 775 13 2191 776 13 2192 776 13 2193 775 13 2194 777 13 2195 776 13 2196 777 13 2197 778 13 2198 778 13 2199 777 13 2200 756 13 2201 778 13 2202 756 13 2203 758 13 2204 752 13 2205 754 13 2206 779 13 2207 779 13 2208 754 13 2209 780 13 2210 779 13 2211 780 13 2212 781 13 2213 781 13 2214 780 13 2215 782 13 2216 781 13 2217 782 13 2218 783 13 2219 783 13 2220 782 13 2221 784 13 2222 783 13 2223 784 13 2224 785 13 2225 786 13 2226 774 13 2227 785 13 2228 785 13 2229 774 13 2230 787 13 2231 785 13 2232 787 13 2233 783 13 2234 786 13 2235 772 13 2236 774 13 2237 788 18 2238 789 18 2239 790 18 2240 790 57 2241 789 57 2242 791 57 2243 790 18 2244 791 18 2245 792 18 2246 790 18 2247 792 18 2248 793 18 2249 793 18 2250 792 18 2251 794 18 2252 793 18 2253 794 18 2254 795 18 2255 795 18 2256 794 18 2257 796 18 2258 795 18 2259 796 18 2260 797 18 2261 797 18 2262 796 18 2263 798 18 2264 797 18 2265 798 18 2266 799 18 2267 799 18 2268 798 18 2269 800 18 2270 799 18 2271 800 18 2272 801 18 2273 801 18 2274 800 18 2275 802 18 2276 801 18 2277 802 18 2278 803 18 2279 803 18 2280 802 18 2281 804 18 2282 803 18 2283 804 18 2284 805 18 2285 805 18 2286 804 18 2287 806 18 2288 805 58 2289 806 58 2290 807 58 2291 807 18 2292 808 18 2293 805 18 2294 805 18 2295 808 18 2296 809 18 2297 805 18 2298 809 18 2299 803 18 2300 803 18 2301 809 18 2302 810 18 2303 803 18 2304 810 18 2305 801 18 2306 801 18 2307 810 18 2308 811 18 2309 801 18 2310 811 18 2311 799 18 2312 799 18 2313 811 18 2314 812 18 2315 799 18 2316 812 18 2317 797 18 2318 797 18 2319 812 18 2320 813 18 2321 797 18 2322 813 18 2323 795 18 2324 795 18 2325 813 18 2326 814 18 2327 795 18 2328 814 18 2329 793 18 2330 793 18 2331 814 18 2332 815 18 2333 793 18 2334 815 18 2335 790 18 2336 790 18 2337 815 18 2338 816 18 2339 790 18 2340 816 18 2341 788 18 2342 788 59 2343 816 59 2344 817 59 2345 817 18 2346 816 18 2347 818 18 2348 817 18 2349 818 18 2350 819 18 2351 819 60 2352 818 60 2353 820 60 2354 819 61 2355 820 61 2356 821 61 2357 821 18 2358 820 18 2359 822 18 2360 821 61 2361 822 61 2362 823 61 2363 823 60 2364 822 60 2365 824 60 2366 823 18 2367 824 18 2368 825 18 2369 825 18 2370 824 18 2371 826 18 2372 825 18 2373 826 18 2374 827 18 2375 827 18 2376 826 18 2377 828 18 2378 827 18 2379 828 18 2380 829 18 2381 829 62 2382 828 62 2383 830 62 2384 830 18 2385 828 18 2386 831 18 2387 831 18 2388 828 18 2389 832 18 2390 831 18 2391 832 18 2392 833 18 2393 833 18 2394 832 18 2395 834 18 2396 833 18 2397 834 18 2398 835 18 2399 835 18 2400 834 18 2401 836 18 2402 835 18 2403 836 18 2404 837 18 2405 837 18 2406 836 18 2407 838 18 2408 837 18 2409 838 18 2410 839 18 2411 839 18 2412 838 18 2413 840 18 2414 839 18 2415 840 18 2416 841 18 2417 841 18 2418 840 18 2419 842 18 2420 841 18 2421 842 18 2422 843 18 2423 843 18 2424 842 18 2425 844 18 2426 843 18 2427 844 18 2428 845 18 2429 845 63 2430 844 63 2431 846 63 2432 846 18 2433 844 18 2434 847 18 2435 847 18 2436 844 18 2437 848 18 2438 847 64 2439 848 64 2440 849 64 2441 849 18 2442 848 18 2443 850 18 2444 849 18 2445 850 18 2446 851 18 2447 851 65 2448 850 65 2449 852 65 2450 851 66 2451 852 66 2452 853 66 2453 853 18 2454 852 18 2455 854 18 2456 853 66 2457 854 66 2458 855 66 2459 855 65 2460 854 65 2461 856 65 2462 855 18 2463 856 18 2464 857 18 2465 857 18 2466 856 18 2467 809 18 2468 857 18 2469 809 18 2470 808 18 2471 818 18 2472 816 18 2473 858 18 2474 858 18 2475 816 18 2476 815 18 2477 858 18 2478 815 18 2479 859 18 2480 859 18 2481 815 18 2482 814 18 2483 859 18 2484 814 18 2485 860 18 2486 860 18 2487 814 18 2488 813 18 2489 860 18 2490 813 18 2491 861 18 2492 861 18 2493 813 18 2494 812 18 2495 861 18 2496 812 18 2497 862 18 2498 862 18 2499 812 18 2500 811 18 2501 862 18 2502 811 18 2503 863 18 2504 863 18 2505 811 18 2506 810 18 2507 863 18 2508 810 18 2509 856 18 2510 856 18 2511 810 18 2512 809 18 2513 820 18 2514 818 18 2515 864 18 2516 864 18 2517 818 18 2518 858 18 2519 864 18 2520 858 18 2521 865 18 2522 865 18 2523 858 18 2524 859 18 2525 865 18 2526 859 18 2527 866 18 2528 866 18 2529 859 18 2530 860 18 2531 866 18 2532 860 18 2533 867 18 2534 867 18 2535 860 18 2536 861 18 2537 867 18 2538 861 18 2539 868 18 2540 868 18 2541 861 18 2542 862 18 2543 868 18 2544 862 18 2545 869 18 2546 869 18 2547 862 18 2548 863 18 2549 869 18 2550 863 18 2551 854 18 2552 854 18 2553 863 18 2554 856 18 2555 822 18 2556 820 18 2557 870 18 2558 870 18 2559 820 18 2560 864 18 2561 870 18 2562 864 18 2563 871 18 2564 871 18 2565 864 18 2566 865 18 2567 871 18 2568 865 18 2569 872 18 2570 872 18 2571 865 18 2572 866 18 2573 872 18 2574 866 18 2575 873 18 2576 873 18 2577 866 18 2578 867 18 2579 873 18 2580 867 18 2581 874 18 2582 874 18 2583 867 18 2584 868 18 2585 874 18 2586 868 18 2587 875 18 2588 875 18 2589 868 18 2590 869 18 2591 875 18 2592 869 18 2593 852 18 2594 852 18 2595 869 18 2596 854 18 2597 824 18 2598 822 18 2599 876 18 2600 876 18 2601 822 18 2602 870 18 2603 876 18 2604 870 18 2605 877 18 2606 877 18 2607 870 18 2608 871 18 2609 877 18 2610 871 18 2611 878 18 2612 878 18 2613 871 18 2614 872 18 2615 878 18 2616 872 18 2617 879 18 2618 879 18 2619 872 18 2620 873 18 2621 879 18 2622 873 18 2623 880 18 2624 880 18 2625 873 18 2626 874 18 2627 880 18 2628 874 18 2629 881 18 2630 881 18 2631 874 18 2632 875 18 2633 881 18 2634 875 18 2635 850 18 2636 850 18 2637 875 18 2638 852 18 2639 832 18 2640 828 18 2641 826 18 2642 826 18 2643 824 18 2644 882 18 2645 882 18 2646 824 18 2647 876 18 2648 882 18 2649 876 18 2650 883 18 2651 883 18 2652 876 18 2653 877 18 2654 883 18 2655 877 18 2656 884 18 2657 884 18 2658 877 18 2659 878 18 2660 884 18 2661 878 18 2662 885 18 2663 885 18 2664 878 18 2665 879 18 2666 885 18 2667 879 18 2668 886 18 2669 886 18 2670 879 18 2671 880 18 2672 886 18 2673 880 18 2674 887 18 2675 887 18 2676 880 18 2677 881 18 2678 887 18 2679 881 18 2680 848 18 2681 848 18 2682 881 18 2683 850 18 2684 834 18 2685 832 18 2686 882 18 2687 882 18 2688 832 18 2689 826 18 2690 834 18 2691 882 18 2692 883 18 2693 836 18 2694 834 18 2695 883 18 2696 836 18 2697 883 18 2698 884 18 2699 838 18 2700 836 18 2701 884 18 2702 838 18 2703 884 18 2704 885 18 2705 840 18 2706 838 18 2707 885 18 2708 840 18 2709 885 18 2710 886 18 2711 842 18 2712 840 18 2713 886 18 2714 842 18 2715 886 18 2716 887 18 2717 844 18 2718 842 18 2719 887 18 2720 844 18 2721 887 18 2722 848 18 2723</p>
        </triangles>
      </mesh>
    </geometry>
  </library_geometries>
  <library_visual_scenes>
    <visual_scene id="Scene" name="Scene">
      <node id="본체1" name="본체1" type="NODE">
        <matrix sid="transform">1 0 0 0 0 -0.002104199 0.9999979 0 0 -0.9999979 -0.002104199 -5.591314 0 0 0 1</matrix>
        <instance_geometry url="#Mesh_0-mesh" name="본체1">
          <bind_material>
            <technique_common>
              <instance_material symbol="매테리얼-material" target="#매테리얼-material">
                <bind_vertex_input semantic="UVMap" input_semantic="TEXCOORD" input_set="0"/>
              </instance_material>
            </technique_common>
          </bind_material>
        </instance_geometry>
      </node>
      <node id="Camera" name="Camera" type="NODE">
        <matrix sid="transform">0.6859207 -0.3240135 0.6515582 7.358891 0.7276763 0.3054208 -0.6141704 -6.925791 0 0.8953956 0.4452714 4.958309 0 0 0 1</matrix>
        <instance_camera url="#Camera-camera"/>
      </node>
      <node id="Light" name="Light" type="NODE">
        <matrix sid="transform">-0.2908646 -0.7711008 0.5663932 4.076245 0.9551712 -0.1998834 0.2183912 1.005454 -0.05518906 0.6045247 0.7946723 5.903862 0 0 0 1</matrix>
        <instance_light url="#Light-light"/>
      </node>
    </visual_scene>
  </library_visual_scenes>
  <scene>
    <instance_visual_scene url="#Scene"/>
  </scene>
</COLLADA>